G04 ================== begin FILE IDENTIFICATION RECORD ==================*
G04 Layout Name:  WCSA_SystemSchem_4-Layer.brd*
G04 Film Name:    DCV*
G04 File Format:  Gerber RS274X*
G04 File Origin:  Cadence Allegro 17.4-S013*
G04 Origin Date:  Thu May  5 23:29:30 2022*
G04 *
G04 Layer:  ETCH/DCV*
G04 Layer:  PIN/DCV*
G04 Layer:  VIA CLASS/DCV*
G04 *
G04 Offset:    (0.00 0.00)*
G04 Mirror:    No*
G04 Mode:      Positive*
G04 Rotation:  0*
G04 FullContactRelief:  No*
G04 UndefLineWidth:     5.00*
G04 ================== end FILE IDENTIFICATION RECORD ====================*
%FSLAX25Y25*MOIN*%
%IR0*IPPOS*OFA0.00000B0.00000*MIA0B0*SFA1.00000B1.00000*%
%ADD13C,.024*%
%ADD12C,.063*%
%ADD17C,.03346*%
%ADD11C,.05394*%
%ADD16R,.03346X.03346*%
%ADD14C,.05937*%
%ADD10R,.05394X.05394*%
%ADD15R,.05937X.05937*%
%ADD18C,.01*%
%ADD19C,.025*%
%ADD22C,.03404*%
%ADD23C,.0894*%
%ADD21C,.06398*%
%ADD20C,.08398*%
G75*
%LPD*%
G75*
G36*
G01X-40001Y-25000D02*
X-30000D01*
Y-90000D01*
X-90000D01*
Y-25000D01*
X-43399D01*
X-43305Y-25267D01*
G03X-40095I1605J567D01*
G01X-40001Y-25000D01*
G37*
G36*
G01X60000Y52000D02*
Y-14802D01*
X54303D01*
G03X53802Y-15303I0J-501D01*
G01Y-20697D01*
G03X54303Y-21198I501J0D01*
G01X60000D01*
Y-90000D01*
X-20000D01*
Y-62000D01*
X5258Y-36742D01*
G02X6618Y-37209I566J-565D01*
G03X8307Y-38702I1689J209D01*
G03X10009Y-37000I0J1702D01*
G03X8516Y-35311I-1702J0D01*
G02X8000Y-34005I98J794D01*
G01Y-7000D01*
X15299Y299D01*
G02X16492Y229I565J-566D01*
G03X20000Y-1470I3508J2772D01*
G03X24470Y3000I0J4470D01*
G03X22771Y6508I-4471J0D01*
G02X22701Y7701I496J628D01*
G01X25000Y10000D01*
Y16000D01*
X22701Y18299D01*
G02X22771Y19492I566J565D01*
G03X24470Y23000I-2772J3508D01*
G03X15530I-4470J0D01*
G03X16448Y20286I4471J0D01*
G02X15813Y19000I-635J-486D01*
G01X1000D01*
X-7893Y27893D01*
G02X-7733Y29148I566J566D01*
G03X-5530Y33000I-2266J3852D01*
G03X-10000Y37470I-4470J0D01*
G03X-13852Y35267I0J-4469D01*
G02X-15107Y35107I-689J406D01*
G01X-24000Y44000D01*
Y52000D01*
X-14367D01*
X-14281Y51715D01*
G03X-5719I4281J1285D01*
G01X-5633Y52000D01*
X15633D01*
X15719Y51715D01*
G03X24281I4281J1285D01*
G01X24367Y52000D01*
X27405D01*
G02X28107Y50816I0J-800D01*
G03X27898Y50000I1493J-817D01*
G03X31302I1702J0D01*
G03X31093Y50816I-1702J-1D01*
G02X31795Y52000I702J384D01*
G01X60000D01*
G37*
G36*
G01X74000Y90000D02*
X90000D01*
Y-90000D01*
X74000D01*
Y-21339D01*
G02X75240Y-20671I800J0D01*
G03X77000Y-21199I1760J2671D01*
G03Y-14801I0J3199D01*
G03X75240Y-15329I0J-3199D01*
G02X74000Y-14661I-440J668D01*
G01Y78802D01*
X79697D01*
G03X81198Y80303I0J1501D01*
G01Y85697D01*
G03X79697Y87198I-1501J0D01*
G01X74000D01*
Y90000D01*
G37*
%LPC*%
G75*
G36*
G01X-84198Y-50197D02*
Y-44803D01*
G02X-82697Y-43302I1501J0D01*
G01X-77303D01*
G02X-75802Y-44803I0J-1501D01*
G01Y-50197D01*
G02X-77303Y-51698I-1501J0D01*
G01X-82697D01*
G02X-84198Y-50197I0J1501D01*
G37*
G36*
G01Y-82697D02*
Y-77303D01*
G02X-82697Y-75802I1501J0D01*
G01X-77303D01*
G02X-75802Y-77303I0J-1501D01*
G01Y-82697D01*
G02X-77303Y-84198I-1501J0D01*
G01X-82697D01*
G02X-84198Y-82697I0J1501D01*
G37*
G36*
G01X16530Y-9968D02*
Y-4032D01*
G02X17032Y-3530I501J1D01*
G01X22968D01*
G02X23470Y-4032I0J-501D01*
G01Y-9968D01*
G02X22968Y-10470I-501J-1D01*
G01X17032D01*
G02X16530Y-9968I-1J501D01*
G37*
G36*
G01X77802Y11303D02*
Y16697D01*
G02X79303Y18198I1501J0D01*
G01X84697D01*
G02X86198Y16697I0J-1501D01*
G01Y11303D01*
G02X84697Y9802I-1501J0D01*
G01X79303D01*
G02X77802Y11303I0J1501D01*
G37*
G54D22*
X-52000Y-60500D03*
X-33500Y-80807D03*
X-42000Y-40000D03*
X47000Y-11000D03*
X42000Y-87000D03*
X38400Y36000D03*
X22000Y-69193D03*
X49000Y-64000D03*
X17000Y-40000D03*
X16400Y-47500D03*
X52000Y-30000D03*
X47800Y36200D03*
X85000Y31000D03*
Y-48000D03*
X77000Y73000D03*
G54D23*
X-10000Y43000D03*
X20000Y33000D03*
Y43000D03*
G54D21*
X-80000Y-37500D03*
G54D20*
Y-70000D03*
X82000Y4000D03*
%LPD*%
G75*
G54D10*
X-80000Y-80000D03*
Y-47500D03*
Y-15000D03*
Y18000D03*
X57000Y-18000D03*
X82000Y14000D03*
X77000Y83000D03*
G54D11*
X-80000Y-70000D03*
Y-37500D03*
Y-5000D03*
Y28000D03*
X67000Y-18000D03*
Y83000D03*
X57000D03*
X77000Y-18000D03*
X82000Y4000D03*
G54D12*
X-77842Y48630D03*
X-58158D03*
X-68000Y88000D03*
G54D13*
X-62500Y-27500D03*
Y2500D03*
X-58000Y9000D03*
X-55000Y-80827D03*
X-33500Y-80807D03*
X-34807Y-69193D03*
X-52000Y-60500D03*
X-49500Y-47600D03*
X-42000Y-40000D03*
X-41700Y-24700D03*
X-32400Y-19173D03*
X-54086Y-10000D03*
X-37100Y39400D03*
X-34950Y69000D03*
X-41000Y82200D03*
X-25000Y-89000D03*
X-15000Y-75000D03*
X-9000Y-34000D03*
X-17000Y-53000D03*
X-26000Y-48900D03*
X-6927Y-16928D03*
X-22000Y57500D03*
X4000Y-80807D03*
X16400Y-47500D03*
X17000Y-40000D03*
X8307Y-37000D03*
X6000Y92000D03*
X42000Y-87000D03*
X22000Y-69193D03*
X20000Y-19000D03*
X38400Y36000D03*
X29600Y50000D03*
X36173Y68300D03*
X67000Y-89000D03*
Y-61000D03*
X67500Y-54000D03*
X49000Y-64000D03*
X52500Y-52500D03*
X52000Y-30000D03*
X67000Y-6000D03*
X47000Y-11000D03*
X47800Y36200D03*
X47827Y64173D03*
X85000Y-75000D03*
Y-48000D03*
Y31000D03*
Y59000D03*
X77000Y73000D03*
G54D14*
X-10000Y-7000D03*
Y3000D03*
Y13000D03*
Y23000D03*
Y33000D03*
Y43000D03*
Y53000D03*
Y63000D03*
Y73000D03*
Y83000D03*
X20000Y13000D03*
Y3000D03*
Y43000D03*
Y33000D03*
Y23000D03*
Y63000D03*
Y53000D03*
Y73000D03*
Y83000D03*
G54D15*
Y-7000D03*
G54D16*
X68000Y38000D03*
G54D17*
Y42921D03*
Y52764D03*
Y47843D03*
G54D18*
G01X-83599Y-37500D02*
X-80000D01*
G01D02*
X-76401D01*
G01X-80000D02*
Y-33901D01*
G01Y-41099D02*
Y-37500D01*
G01X16129Y-7000D02*
X20000D01*
G01D02*
X23871D01*
G01X20000D02*
Y-3129D01*
G01Y-10871D02*
Y-7000D01*
G01X57000Y-18000D02*
Y-14401D01*
G01Y-21599D02*
Y-18000D01*
G01X77000D02*
X80599D01*
G54D19*
G01X-17000Y-53000D02*
X-25000Y-61000D01*
Y-89000D01*
G01X-17000Y-53000D02*
Y16000D01*
X-10000Y23000D01*
G01X20000Y13000D02*
X3000Y-4000D01*
Y-27000D01*
X-4000Y-34000D01*
X-9000D01*
G01X-22000Y57500D02*
Y51000D01*
G01X20000Y63000D02*
X6000Y77000D01*
Y92000D01*
G01X57000Y-18000D02*
X48000D01*
G01X76969Y-14432D02*
X77000Y-14401D01*
G01Y-18000D02*
X76969Y-17969D01*
Y-14432D01*
G01X77000Y-24000D02*
Y-18000D01*
G01X68000Y52764D02*
X81764D01*
M02*
