G04 ================== begin FILE IDENTIFICATION RECORD ==================*
G04 Layout Name:  WCSA_SystemSchem_4-Layer.brd*
G04 Film Name:    BOTTOM*
G04 File Format:  Gerber RS274X*
G04 File Origin:  Cadence Allegro -unreleased*
G04 Origin Date:  Wed May  4 17:48:14 2022*
G04 *
G04 Layer:  ETCH/BOTTOM*
G04 Layer:  PIN/BOTTOM*
G04 Layer:  VIA CLASS/BOTTOM*
G04 *
G04 Offset:    (0.00 0.00)*
G04 Mirror:    No*
G04 Mode:      Positive*
G04 Rotation:  0*
G04 FullContactRelief:  No*
G04 UndefLineWidth:     0.00*
G04 ================== end FILE IDENTIFICATION RECORD ====================*
%FSLAX25Y25*MOIN*%
%IR0*IPPOS*OFA0.00000B0.00000*MIA0B0*SFA1.00000B1.00000*%
%ADD18R,.009X.042*%
%ADD14C,.024*%
%ADD15C,.063*%
%ADD26C,.03346*%
%ADD11C,.05394*%
%ADD27R,.03346X.03346*%
%ADD20C,.05937*%
%ADD10R,.05394X.05394*%
%ADD23R,.05937X.05937*%
%ADD22R,.105X.1*%
%ADD17R,.012X.059*%
%ADD16R,.02X.03156*%
%ADD19R,.06811X.03819*%
%ADD24R,.03819X.06811*%
%ADD25R,.07165X.04882*%
%ADD13R,.07165X.04567*%
%ADD21R,.04567X.07165*%
%AMMACRO12*
4,1,40,.03091,-.01924,
.03091,.01924,
.030792,.020582,
.030443,.021884,
.029874,.023105,
.029101,.024209,
.028148,.025162,
.027044,.025935,
.025822,.026504,
.02452,.026853,
.02318,.02697,
-.02318,.02697,
-.024522,.026852,
-.025824,.026503,
-.027045,.025934,
-.028149,.025161,
-.029102,.024208,
-.029875,.023104,
-.030444,.021882,
-.030793,.02058,
-.03091,.01924,
-.03091,-.01924,
-.030792,-.020582,
-.030443,-.021884,
-.029874,-.023105,
-.029101,-.024209,
-.028148,-.025162,
-.027044,-.025935,
-.025822,-.026504,
-.02452,-.026853,
-.02318,-.02697,
.02318,-.02697,
.024522,-.026852,
.025824,-.026503,
.027045,-.025934,
.028149,-.025161,
.029102,-.024208,
.029875,-.023104,
.030444,-.021882,
.030793,-.02058,
.03091,-.01924,
0.0*
%
%ADD12MACRO12*%
%ADD28C,.01*%
%ADD29C,.02*%
%ADD30C,.03*%
%ADD31C,.015*%
%ADD32C,.025*%
%ADD33C,.035*%
%ADD34C,.0095*%
G75*
%LPD*%
G75*
G54D10*
X-80000Y-80000D03*
Y-47500D03*
Y-15000D03*
Y18000D03*
X57000Y-18000D03*
X82000Y14000D03*
X77000Y83000D03*
G54D20*
X-10000Y-7000D03*
Y3000D03*
Y13000D03*
Y23000D03*
Y33000D03*
Y43000D03*
Y53000D03*
Y63000D03*
Y73000D03*
Y83000D03*
X20000Y13000D03*
Y3000D03*
Y43000D03*
Y33000D03*
Y23000D03*
Y63000D03*
Y53000D03*
Y73000D03*
Y83000D03*
G54D11*
X-80000Y-70000D03*
Y-37500D03*
Y-5000D03*
Y28000D03*
X67000Y-18000D03*
Y83000D03*
X57000D03*
X77000Y-18000D03*
X82000Y4000D03*
G54D30*
G01X-41250Y-47600D02*
X-49500D01*
G54D12*
X-62500Y-81299D03*
Y-68780D03*
X56000Y-2299D03*
Y10220D03*
G54D21*
X-3307Y-25000D03*
X8307D03*
G54D31*
G01X-22000Y55000D02*
X-31000D01*
X-34950Y51050D01*
G54D13*
X-62500Y-15807D03*
Y-4193D03*
X-25000Y-80807D03*
Y-69193D03*
X13000Y-80807D03*
Y-69193D03*
X32000Y-80807D03*
Y-69193D03*
X85000Y-55193D03*
Y-66807D03*
Y39193D03*
Y50807D03*
G54D22*
X28750Y-44000D03*
X69250D03*
G54D32*
G01X-62500Y-81299D02*
Y-85500D01*
X-59000Y-89000D01*
X-25000D01*
G01X-80000Y-70000D02*
X-68561D01*
X-67341Y-68780D01*
X-62500D01*
G01X-25000Y-80807D02*
X-33500D01*
G01X-52000Y-60500D02*
Y-66000D01*
X-37193Y-80807D01*
X-33500D01*
G01X-17000Y-53000D02*
X-5000Y-65000D01*
Y-69173D01*
G01X-10000Y-7000D02*
Y-13855D01*
X-6927Y-16928D01*
G01D02*
X-3307Y-20548D01*
Y-25000D01*
G01X-10000Y73000D02*
X-3000D01*
X14000Y90000D01*
X50000D01*
X57000Y83000D01*
G01X28750Y-44000D02*
X21000D01*
X17000Y-40000D01*
G01X8307Y-37000D02*
Y-25000D01*
G01X32000Y-80807D02*
X37333D01*
X37353Y-80827D01*
X49000D01*
G01X67000Y-61000D02*
X53000D01*
X36000Y-44000D01*
X28750D01*
G01X20000Y-19000D02*
X27000D01*
X31173Y-14827D01*
X38000D01*
G01Y-3173D02*
X33173D01*
X27000Y3000D01*
X20000D01*
G01X36173Y54000D02*
Y60827D01*
X29000Y68000D01*
G01X67000Y-79669D02*
X59331D01*
X58173Y-80827D01*
X49000D01*
G01X67000Y-79669D02*
Y-89000D01*
G01X49000Y-64000D02*
Y-69173D01*
G01X69250Y-44000D02*
X63000D01*
X52000Y-33000D01*
Y-30000D01*
G01X67500Y-54000D02*
X69250Y-52250D01*
Y-44000D01*
G01X67000Y-6000D02*
X63299Y-2299D01*
X56000D01*
G01X82000Y14000D02*
X68000D01*
X64220Y10220D01*
X56000D01*
G01X48000Y36000D02*
Y48671D01*
X47827Y48844D01*
Y54000D01*
G01Y64173D02*
Y54000D01*
G01X57000Y83000D02*
Y53001D01*
X62158Y47843D01*
X68000D01*
G01X85000Y39193D02*
Y31000D01*
G01Y39193D02*
X77194D01*
X76001Y38000D01*
X68000D01*
G01X85000Y50807D02*
Y59000D01*
G54D23*
X20000Y-7000D03*
G54D14*
X-62500Y-27500D03*
Y2500D03*
X-58000Y9000D03*
X-55000Y-80827D03*
X-33500Y-80807D03*
X-34807Y-69193D03*
X-52000Y-60500D03*
X-49500Y-47600D03*
X-42000Y-40000D03*
X-54086Y-10000D03*
X-35000Y-16900D03*
X-42000Y-25000D03*
X-37100Y39400D03*
X-34950Y69000D03*
X-41000Y81000D03*
X-25000Y-89000D03*
X-15000Y-75000D03*
X-9000Y-34000D03*
X-17000Y-53000D03*
X-26000Y-48900D03*
X-6927Y-16928D03*
X-22000Y55000D03*
X4000Y-80807D03*
X17000Y-40000D03*
X17500Y-47500D03*
X8307Y-37000D03*
X6000Y92000D03*
X42000Y-87000D03*
X22000Y-69193D03*
X20000Y-19000D03*
X38400Y36000D03*
X29000Y68000D03*
Y50000D03*
X67000Y-89000D03*
Y-61000D03*
X67500Y-54000D03*
X49000Y-64000D03*
X52500Y-52500D03*
X52000Y-30000D03*
X67000Y-6000D03*
X47000Y-11000D03*
X48000Y36000D03*
X47827Y64173D03*
X85000Y-75000D03*
Y-48000D03*
Y31000D03*
Y59000D03*
X77000Y73000D03*
G54D33*
G01X-52000Y-33000D02*
X-57500Y-27500D01*
X-62500D01*
G01Y-15807D02*
X-67833D01*
X-68640Y-15000D01*
X-80000D01*
G01X-62500Y-4193D02*
Y2500D01*
G01X-25000Y-69193D02*
X-34807D01*
G01X-15000Y-75000D02*
Y-65000D01*
X-22600Y-57400D01*
X-33750D01*
G01X-35599Y-33100D02*
X-33326Y-30827D01*
X-25000D01*
G01Y-19173D02*
X-32727D01*
X-35000Y-16900D01*
G01X-5000Y-80827D02*
X-11674D01*
X-15000Y-77501D01*
Y-75000D01*
G01X13000Y-80807D02*
X4000D01*
G01X-5000Y-80827D02*
X-594D01*
X-574Y-80807D01*
X4000D01*
G01X13000Y-69193D02*
X22000D01*
G01X32000D02*
X22000D01*
G01X67000Y-68331D02*
X74668D01*
X76192Y-66807D01*
X85000D01*
G01D02*
Y-75000D01*
G01Y-55193D02*
Y-48000D01*
G54D24*
X36173Y54000D03*
X47827D03*
G54D15*
X-58158Y48630D03*
X-77842D03*
X-68000Y88000D03*
G54D34*
G01X-31000Y63200D02*
Y60000D01*
X-33000Y58000D01*
X-36200D01*
G01X-33000Y46800D02*
Y43500D01*
X-37100Y39400D01*
G01X-34950Y51050D02*
Y46800D01*
G01X-36950Y63200D02*
X-38400D01*
X-41000Y65800D01*
G01X-34950Y63200D02*
Y69000D01*
G01X-31000Y46800D02*
X-33000D01*
G01X-29050Y72950D02*
Y63200D01*
G54D25*
X67000Y-79669D03*
Y-68331D03*
G54D16*
X-41250Y-57400D03*
X-37500D03*
X-33750D03*
Y-47600D03*
X-37500D03*
X-41250D03*
G54D17*
X-46000Y-33100D03*
X-44000D03*
X-42000D03*
X-40100D03*
X-47900D03*
X-40100Y-16900D03*
X-42000D03*
X-44000D03*
X-46000D03*
X-47900D03*
G54D26*
X68000Y42921D03*
Y52764D03*
Y47843D03*
G54D27*
Y38000D03*
G54D18*
X-36950Y46800D03*
X-34950D03*
X-33000D03*
Y63200D03*
X-34950D03*
X-36950D03*
X-31000Y46800D03*
X-29050D03*
Y63200D03*
X-31000D03*
G54D28*
G01X-47900Y-33100D02*
X-51900D01*
X-52000Y-33000D01*
G01X-29050Y46800D02*
Y41950D01*
X-53000Y18000D01*
X-80000D01*
G01Y28000D02*
X-62000D01*
X-43200Y46800D01*
X-36950D01*
G01X-40100Y-33100D02*
X-35599D01*
G01X-42000D02*
Y-40000D01*
G01Y-25000D02*
X-46000Y-29000D01*
Y-33100D01*
G01X-54086Y-10000D02*
X-50800D01*
X-47900Y-12900D01*
Y-16900D01*
G01X-40100D02*
X-35000D01*
G01X-42000D02*
Y21000D01*
X-10000Y53000D01*
G01Y63000D02*
X-15000Y58000D01*
Y50829D01*
X-44000Y21829D01*
Y-16900D01*
G54D19*
X-5000Y-80827D03*
Y-69173D03*
X-25000Y-30827D03*
Y-19173D03*
X38000Y-14827D03*
Y-3173D03*
X49000Y-80827D03*
Y-69173D03*
G54D29*
G01X-36200Y58000D02*
X-44000D01*
X-68000Y82000D01*
Y88000D01*
G01X-33750Y-47600D02*
Y-50751D01*
X-37500Y-54501D01*
Y-57400D01*
G01D02*
X-33750D01*
G01X-52000Y-60500D02*
X-43772D01*
X-41250Y-57978D01*
Y-57400D01*
G01X-37500Y-47600D02*
X-33750D01*
G01X-41000Y65800D02*
Y81000D01*
G01X6000Y92000D02*
X-10000D01*
X-29050Y72950D01*
M02*
