G04 ================== begin FILE IDENTIFICATION RECORD ==================*
G04 Layout Name:  WCSA_SystemSchem_4-Layer.brd*
G04 Film Name:    GND*
G04 File Format:  Gerber RS274X*
G04 File Origin:  Cadence Allegro -unreleased*
G04 Origin Date:  Wed May  4 22:51:52 2022*
G04 *
G04 Layer:  ETCH/GND*
G04 Layer:  PIN/GND*
G04 Layer:  VIA CLASS/GND*
G04 *
G04 Offset:    (0.00 0.00)*
G04 Mirror:    No*
G04 Mode:      Negative*
G04 Rotation:  0*
G04 FullContactRelief:  No*
G04 UndefLineWidth:     0.00*
G04 ================== end FILE IDENTIFICATION RECORD ====================*
%FSLAX25Y25*MOIN*%
%IR0*IPPOS*OFA0.00000B0.00000*MIA0B0*SFA1.00000B1.00000*%
%ADD11C,.03*%
%ADD14C,.024*%
%ADD13C,.063*%
%ADD16R,.03346X.03346*%
%ADD15C,.05937*%
%ADD10R,.05394X.05394*%
%AMMACRO12*
4,1,36,0.0,-.0025,
.000434,-.002462,
.000855,-.002349,
.00125,-.002165,
.001607,-.001915,
.001915,-.001607,
.002165,-.00125,
.002349,-.000855,
.002462,-.000434,
.0025,0.0,
.002462,.000434,
.002349,.000855,
.002165,.00125,
.001915,.001607,
.001607,.001915,
.00125,.002165,
.000855,.002349,
.000434,.002462,
0.0,.0025,
-.000434,.002462,
-.000855,.002349,
-.00125,.002165,
-.001607,.001915,
-.001915,.001607,
-.002165,.00125,
-.002349,.000855,
-.002462,.000434,
-.0025,0.0,
-.002462,-.000434,
-.002349,-.000855,
-.002165,-.00125,
-.001915,-.001607,
-.001607,-.001915,
-.00125,-.002165,
-.000855,-.002349,
-.000434,-.002462,
0.0,-.0025,
0.0*
%
%ADD12MACRO12*%
%ADD17C,.025*%
G75*
%LPD*%
G75*
G36*
G01X-105000Y-105000D02*
X105000D01*
Y105000D01*
X-105000D01*
Y-105000D01*
G37*
%LPC*%
G75*
G36*
G01X90000Y-90000D02*
X-90000D01*
Y91000D01*
X-60000D01*
X-46000Y77000D01*
X27000D01*
X40000Y90000D01*
X90000D01*
Y-90000D01*
G37*
%LPD*%
G75*
G54D11*
X-62500Y-27500D03*
Y2500D03*
X-55000Y-80827D03*
X-33500Y-80807D03*
X-34807Y-69193D03*
X-52000Y-60500D03*
X-49500Y-47600D03*
X-54086Y-10000D03*
X-42000Y-25000D03*
X-25000Y-89000D03*
X-15000Y-75000D03*
X-9000Y-34000D03*
X-17000Y-53000D03*
X-22000Y55000D03*
X4000Y-80807D03*
X17000Y-40000D03*
X8307Y-37000D03*
X6000Y92000D03*
X20000Y-19000D03*
X29000Y68000D03*
X67000Y-89000D03*
Y-61000D03*
X67500Y-54000D03*
X49000Y-64000D03*
X52500Y-52500D03*
X52000Y-30000D03*
X67000Y-6000D03*
X48000Y36000D03*
X47827Y64173D03*
X85000Y-75000D03*
Y59000D03*
G54D12*
X-58000Y9000D03*
X-42000Y-40000D03*
X-35000Y-16900D03*
X-37100Y39400D03*
X-34950Y69000D03*
X-26000Y-48900D03*
X-6927Y-16928D03*
X17500Y-47500D03*
X42000Y-87000D03*
X22000Y-69193D03*
X38400Y36000D03*
X29000Y50000D03*
X47000Y-11000D03*
X85000Y-48000D03*
Y31000D03*
X77000Y73000D03*
%LPC*%
G75*
G54D10*
X-80000Y-80000D03*
Y-47500D03*
Y-15000D03*
X77000Y83000D03*
G54D13*
X-77842Y48630D03*
G54D14*
X-41000Y81000D03*
G54D15*
X-10000Y-7000D03*
X20000Y83000D03*
G54D16*
X68000Y38000D03*
G54D17*
G01X-41000Y81000D02*
Y86000D01*
X-35000Y92000D01*
X-6000D01*
X3000Y83000D01*
X20000D01*
M02*
