G04 ================== begin FILE IDENTIFICATION RECORD ==================*
G04 Layout Name:  WCSA_SystemSchem_4-Layer.brd*
G04 Film Name:    TOP*
G04 File Format:  Gerber RS274X*
G04 File Origin:  Cadence Allegro -unreleased*
G04 Origin Date:  Wed May  4 22:51:52 2022*
G04 *
G04 Layer:  ETCH/TOP*
G04 Layer:  PIN/TOP*
G04 Layer:  VIA CLASS/TOP*
G04 *
G04 Offset:    (0.00 0.00)*
G04 Mirror:    No*
G04 Mode:      Positive*
G04 Rotation:  0*
G04 FullContactRelief:  No*
G04 UndefLineWidth:     0.00*
G04 ================== end FILE IDENTIFICATION RECORD ====================*
%FSLAX25Y25*MOIN*%
%IR0*IPPOS*OFA0.00000B0.00000*MIA0B0*SFA1.00000B1.00000*%
%ADD14C,.024*%
%ADD15C,.063*%
%ADD24C,.03346*%
%ADD11C,.05394*%
%ADD25R,.03346X.03346*%
%ADD19C,.05937*%
%ADD10R,.05394X.05394*%
%ADD21R,.05937X.05937*%
%AMMACRO20*
4,1,40,.03583,-.01181,
-.03583,-.01181,
-.036343,-.011764,
-.036841,-.011629,
-.037308,-.01141,
-.037729,-.011114,
-.038093,-.010748,
-.038387,-.010325,
-.038604,-.009858,
-.038736,-.00936,
-.03878,-.00886,
-.03878,.00886,
-.038734,.009373,
-.038599,.009871,
-.03838,.010338,
-.038084,.010759,
-.037718,.011123,
-.037295,.011417,
-.036828,.011634,
-.03633,.011766,
-.03583,.01181,
.03583,.01181,
.036343,.011764,
.036841,.011629,
.037308,.01141,
.037729,.011114,
.038093,.010748,
.038387,.010325,
.038604,.009858,
.038736,.00936,
.03878,.00886,
.03878,-.00886,
.038734,-.009373,
.038599,-.009871,
.03838,-.010338,
.038084,-.010759,
.037718,-.011123,
.037295,-.011417,
.036828,-.011634,
.03633,-.011766,
.03583,-.01181,
0.0*
%
%ADD20MACRO20*%
%ADD16R,.04X.02*%
%ADD22R,.02X.04*%
%ADD12R,.06811X.03819*%
%ADD18R,.03819X.06811*%
%ADD13R,.07165X.04567*%
%ADD17R,.04567X.07165*%
%AMMACRO23*
4,1,40,.03091,.01924,
.03091,-.01924,
.030792,-.020582,
.030443,-.021884,
.029874,-.023105,
.029101,-.024209,
.028148,-.025162,
.027044,-.025935,
.025822,-.026504,
.02452,-.026853,
.02318,-.02697,
-.02318,-.02697,
-.024522,-.026852,
-.025824,-.026503,
-.027045,-.025934,
-.028149,-.025161,
-.029102,-.024208,
-.029875,-.023104,
-.030444,-.021882,
-.030793,-.02058,
-.03091,-.01924,
-.03091,.01924,
-.030792,.020582,
-.030443,.021884,
-.029874,.023105,
-.029101,.024209,
-.028148,.025162,
-.027044,.025935,
-.025822,.026504,
-.02452,.026853,
-.02318,.02697,
.02318,.02697,
.024522,.026852,
.025824,.026503,
.027045,.025934,
.028149,.025161,
.029102,.024208,
.029875,.023104,
.030444,.021882,
.030793,.02058,
.03091,.01924,
0.0*
%
%ADD23MACRO23*%
%ADD26C,.01*%
%ADD27C,.02*%
%ADD28C,.03*%
%ADD29C,.025*%
%ADD30C,.035*%
G75*
%LPD*%
G75*
G54D10*
X-80000Y-80000D03*
Y-47500D03*
Y-15000D03*
Y18000D03*
X57000Y-18000D03*
X82000Y14000D03*
X77000Y83000D03*
G54D20*
X44724Y-57500D03*
X25276D03*
X44724Y-42500D03*
Y-47500D03*
Y-52500D03*
X25276D03*
Y-47500D03*
Y-42500D03*
G54D11*
X-80000Y-70000D03*
Y-37500D03*
Y-5000D03*
Y28000D03*
X67000Y-18000D03*
Y83000D03*
X57000D03*
X77000Y-18000D03*
X82000Y4000D03*
G54D30*
G01X-62500Y-80827D02*
X-55000D01*
G01X-62500Y-36693D02*
X-68333D01*
X-69140Y-37500D01*
X-80000D01*
G01X-62500Y-36693D02*
Y-27500D01*
G01Y-48307D02*
X-68333D01*
X-69140Y-47500D01*
X-80000D01*
G01Y-5000D02*
X-68640D01*
X-67833Y-4193D01*
X-62500D01*
G01X-80000Y-15000D02*
X-68640D01*
X-67833Y-15807D01*
X-62500D01*
G01Y2500D02*
Y-4193D01*
G01X-48807Y9000D02*
X-58000D01*
G01X-25000Y-69173D02*
X-32587D01*
X-32607Y-69193D01*
X-34807D01*
G01X-15000Y-75000D02*
Y-77950D01*
X-12143Y-80807D01*
X-5000D01*
G01X13000D02*
X4000D01*
G01D02*
X-5000D01*
G01X13000Y-69193D02*
X22000D01*
G01X77000Y83000D02*
Y73000D01*
G54D12*
X-62500Y-80827D03*
Y-69173D03*
X-25000Y-80827D03*
Y-69173D03*
X-5000Y-53327D03*
Y-41673D03*
X-25000Y-10827D03*
Y827D03*
X38000Y-14827D03*
Y-3173D03*
X49000Y-80827D03*
Y-69173D03*
X67500Y-45827D03*
Y-34173D03*
G54D21*
X20000Y-7000D03*
G54D13*
X-62500Y-48307D03*
Y-36693D03*
Y-15807D03*
Y-4193D03*
X-45000Y-80807D03*
Y-69193D03*
X-35000Y49193D03*
Y60807D03*
X-5000Y-80807D03*
Y-69193D03*
X13000Y-80807D03*
Y-69193D03*
X56000Y9807D03*
Y-1807D03*
G54D22*
X42000Y19500D03*
X38400Y28500D03*
X45600D03*
G54D23*
X67000Y-80220D03*
Y-67701D03*
G54D14*
X-62500Y-27500D03*
Y2500D03*
X-58000Y9000D03*
X-55000Y-80827D03*
X-33500Y-80807D03*
X-34807Y-69193D03*
X-52000Y-60500D03*
X-49500Y-47600D03*
X-42000Y-40000D03*
X-54086Y-10000D03*
X-35000Y-16900D03*
X-42000Y-25000D03*
X-37100Y39400D03*
X-34950Y69000D03*
X-41000Y81000D03*
X-25000Y-89000D03*
X-15000Y-75000D03*
X-9000Y-34000D03*
X-17000Y-53000D03*
X-26000Y-48900D03*
X-6927Y-16928D03*
X-22000Y55000D03*
X4000Y-80807D03*
X17000Y-40000D03*
X17500Y-47500D03*
X8307Y-37000D03*
X6000Y92000D03*
X42000Y-87000D03*
X22000Y-69193D03*
X20000Y-19000D03*
X38400Y36000D03*
X29000Y68000D03*
Y50000D03*
X67000Y-89000D03*
Y-61000D03*
X67500Y-54000D03*
X49000Y-64000D03*
X52500Y-52500D03*
X52000Y-30000D03*
X67000Y-6000D03*
X47000Y-11000D03*
X48000Y36000D03*
X47827Y64173D03*
X85000Y-75000D03*
Y-48000D03*
Y31000D03*
Y59000D03*
X77000Y73000D03*
G54D24*
X68000Y42921D03*
Y52764D03*
Y47843D03*
G54D15*
X-58158Y48630D03*
X-77842D03*
X-68000Y88000D03*
G54D16*
X-33000Y-56100D03*
X-42000Y-52500D03*
X-33000Y-48900D03*
G54D25*
X68000Y38000D03*
G54D26*
G01X-42000Y-25000D02*
X-38000Y-21000D01*
Y-7233D01*
X-37173Y-6406D01*
Y-2000D01*
G54D17*
X-48807Y9000D03*
X-37193D03*
X8807Y-25000D03*
X-2807D03*
G54D27*
G01X-54086Y-10000D02*
Y-6693D01*
X-56586Y-4193D01*
X-62500D01*
G01X-52000Y-60500D02*
Y-56750D01*
X-47750Y-52500D01*
X-42000D01*
G01X-35000Y49193D02*
Y41500D01*
X-37100Y39400D01*
G01X-22000Y55000D02*
Y57700D01*
X-25107Y60807D01*
X-35000D01*
G54D18*
X-37173Y-2000D03*
X-48827D03*
X33173Y-30000D03*
X36173Y54000D03*
X44827Y-30000D03*
X47827Y54000D03*
G54D28*
G01X-33000Y-48900D02*
X-26000D01*
G54D19*
X-10000Y-7000D03*
Y3000D03*
Y13000D03*
Y23000D03*
Y33000D03*
Y43000D03*
Y53000D03*
Y63000D03*
Y73000D03*
Y83000D03*
X20000Y13000D03*
Y3000D03*
Y43000D03*
Y33000D03*
Y23000D03*
Y63000D03*
Y53000D03*
Y73000D03*
Y83000D03*
G54D29*
G01X-80000Y-70000D02*
X-68483D01*
X-67656Y-69173D01*
X-62500D01*
G01D02*
X-50353D01*
X-50333Y-69193D01*
X-45000D01*
G01X-58158Y48630D02*
X-37193Y27665D01*
Y9000D01*
G01X-45000Y-80807D02*
X-33500D01*
G01D02*
X-29426D01*
X-29406Y-80827D01*
X-25000D01*
G01X-5000Y-69193D02*
X-10807D01*
X-23900Y-56100D01*
X-33000D01*
G01X-37193Y9000D02*
X-29513D01*
X-25000Y4487D01*
Y827D01*
G01X-48807Y9000D02*
Y3176D01*
X-48827Y3156D01*
Y-2000D01*
G01X-9000Y-34000D02*
X-15000D01*
X-25000Y-24000D01*
Y-10827D01*
G01X-17000Y-53000D02*
Y-46001D01*
X-12672Y-41673D01*
X-5000D01*
G01X-6927Y-16928D02*
X-2807Y-21048D01*
Y-25000D01*
G01X-10000Y43000D02*
X-1000D01*
X6000Y50000D01*
Y82000D01*
X14000Y90000D01*
X24000D01*
X29000Y85000D01*
Y68000D01*
G01X-5000Y-53327D02*
Y-69193D01*
G01X17000Y-40000D02*
X19500Y-42500D01*
X25276D01*
G01Y-47500D02*
X17500D01*
G01X8307Y-37000D02*
Y-47307D01*
X13500Y-52500D01*
X25276D01*
G01X8807Y-25000D02*
X14000D01*
X20000Y-19000D01*
G01X42000Y-87000D02*
X46001D01*
X49000Y-84001D01*
Y-80827D01*
G01X25276Y-57500D02*
Y-61725D01*
X22000Y-65001D01*
Y-69193D01*
G01X20000Y-19000D02*
X26579D01*
X33173Y-25594D01*
Y-30000D01*
G01X20000Y-19000D02*
Y-7000D01*
G01X38000Y-14827D02*
X43173D01*
X47000Y-11000D01*
G01X42000Y19500D02*
Y13999D01*
X46192Y9807D01*
X56000D01*
G01X20000Y3000D02*
X27000D01*
X33173Y-3173D01*
X38000D01*
G01X20000Y43000D02*
X24720D01*
X24799Y42921D01*
X68000D01*
G01X38400Y28500D02*
Y36000D01*
G01X36173Y54000D02*
X33000D01*
X29000Y50000D01*
G01X67000Y-89000D02*
Y-80220D01*
G01X66606Y-67701D02*
X67000D01*
G01D02*
Y-61000D01*
G01X49000Y-69173D02*
Y-64000D01*
G01D02*
X44724Y-59724D01*
Y-57500D01*
G01Y-52500D02*
X52500D01*
G01X52000Y-30000D02*
X44827D01*
G01X67500Y-45827D02*
X53173D01*
X51500Y-47500D01*
X44724D01*
G01X67500Y-34173D02*
X58826D01*
X50499Y-42500D01*
X44724D01*
G01X67000Y-6001D02*
X62806Y-1807D01*
X56000D01*
G01X67000Y-6001D02*
Y-18000D01*
G01Y-6001D02*
Y-6000D01*
G01D02*
X77000Y4000D01*
X82000D01*
G01X56000Y9807D02*
X63807D01*
X68000Y14000D01*
X82000D01*
G01X48000Y36000D02*
X45600Y33600D01*
Y28500D01*
G01X47827Y54000D02*
Y64173D01*
G01X68000Y42921D02*
X70674D01*
X74000Y46247D01*
Y57000D01*
X67000Y64000D01*
Y83000D01*
G01X67500Y-54000D02*
Y-45827D01*
M02*
