M48
INCH,LZ
T01C.043
T02C.04016
T03C.03937
T04C.01969
T05C.013
;LEADER: 12 
;HEADER: 
;CODE  : ASCII 
;FILE  : WCSA_SystemSchem_4-Layer-1-4.drl for  ... layers TOP and BOTTOM
;DESIGN: WCSA_SystemSchem_4-Layer.brd
;T01 Holesize 1. = 43.000000 Tolerance = +0.000000/-0.000000 PLATED MILS Quantity = 3
;T02 Holesize 2. = 40.160000 Tolerance = +0.000000/-0.000000 PLATED MILS Quantity = 16
;T03 Holesize 3. = 39.370000 Tolerance = +0.000000/-0.000000 PLATED MILS Quantity = 20
;T04 Holesize 4. = 19.690000 Tolerance = +0.000000/-0.000000 PLATED MILS Quantity = 4
;T05 Holesize 5. = 13.000000 Tolerance = +0.000000/-0.000000 PLATED MILS Quantity = 48
%
G90
T01
X-007784Y004863
X-0068Y0088
X-005816Y004863
T02
X-008Y-008
X-008Y-007
X-008Y-0015
X-008Y-0005
X-008Y-00475
X-008Y-00375
X-008Y0018
X-008Y0028
X0077Y0083
R02X-001
X0082Y0014
X0082Y0004
X0057Y-0018
R02X001
T03
X002Y-0007
R09Y001
X-001Y0083
R09Y-001
T04
X0068Y0038
X0068Y004292
X0068Y004784
X0068Y005276
T05
X-0042Y-0025
X-0052Y-00605
X-00335Y-008081
X000831Y-0037
X-00371Y00394
X-0042Y-004
X0047Y-0011
X0042Y-0087
X-0058Y0009
X-003495Y0069
X0085Y0031
X0029Y005
X00384Y0036
X0077Y0073
X0085Y-0048
X0022Y-006919
X00175Y-00475
X-0026Y-00489
X-0035Y-00169
X-000693Y-001693
X0049Y-0064
X00675Y-0054
X0052Y-003
X0067Y-0061
X0017Y-004
X0067Y-0089
X0006Y0092
X-0041Y0081
X-0017Y-0053
X-0025Y-0089
X0029Y0068
X-0009Y-0034
X0085Y0059
X0085Y-0075
X0067Y-0006
X002Y-0019
X0004Y-008081
X00525Y-00525
X-0015Y-0075
X-0022Y0055
X0048Y0036
X004783Y006417
X-005409Y-001
X-00625Y00025
X-003481Y-006919
X-0055Y-008083
X-00495Y-00476
X-00625Y-00275
M30
