G04 ================== begin FILE IDENTIFICATION RECORD ==================*
G04 Layout Name:  WCSA_SystemSchem_2-Layer - Copy.brd*
G04 Film Name:    MECH*
G04 File Format:  Gerber RS274X*
G04 File Origin:  Cadence Allegro -unreleased*
G04 Origin Date:  Fri Apr 22 01:01:03 2022*
G04 *
G04 Layer:  BOARD GEOMETRY/CUT_MARKS*
G04 Layer:  BOARD GEOMETRY/OUTLINE*
G04 Layer:  MANUFACTURING/NCLEGEND-1-2*
G04 *
G04 Offset:    (0.0 0.0)*
G04 Mirror:    No*
G04 Mode:      Positive*
G04 Rotation:  0*
G04 FullContactRelief:  No*
G04 UndefLineWidth:     0.0*
G04 ================== end FILE IDENTIFICATION RECORD ====================*
%FSLAX25Y25*MOIN*%
%IR0*IPPOS*OFA0.00000B0.00000*MIA0B0*SFA1.00000B1.00000*%
%AMMACRO17*
1,1,0.0,.04,0.0*
20,1,0.0,.04,0.0,-.04,0.0,0.0*
1,1,0.0,-.04,0.0*
1,1,0.0,0.0,.04*
20,1,0.0,0.0,.04,0.0,-.04,0.0*
1,1,0.0,0.0,-.04*
%
%ADD17MACRO17*%
%AMMACRO12*
1,1,0.0,.025,0.0*
20,1,0.0,.025,0.0,.02462,-.004341,0.0*
1,1,0.0,.02462,-.004341*
20,1,0.0,.02462,-.004341,.023492,-.008551,0.0*
1,1,0.0,.023492,-.008551*
20,1,0.0,.023492,-.008551,.021651,-.0125,0.0*
1,1,0.0,.021651,-.0125*
20,1,0.0,.021651,-.0125,.019151,-.01607,0.0*
1,1,0.0,.019151,-.01607*
20,1,0.0,.019151,-.01607,.01607,-.019151,0.0*
1,1,0.0,.01607,-.019151*
20,1,0.0,.01607,-.019151,.0125,-.021651,0.0*
1,1,0.0,.0125,-.021651*
20,1,0.0,.0125,-.021651,.008551,-.023492,0.0*
1,1,0.0,.008551,-.023492*
20,1,0.0,.008551,-.023492,.004341,-.02462,0.0*
1,1,0.0,.004341,-.02462*
20,1,0.0,.004341,-.02462,0.0,-.025,0.0*
1,1,0.0,0.0,-.025*
20,1,0.0,0.0,-.025,-.004341,-.02462,0.0*
1,1,0.0,-.004341,-.02462*
20,1,0.0,-.004341,-.02462,-.008551,-.023492,0.0*
1,1,0.0,-.008551,-.023492*
20,1,0.0,-.008551,-.023492,-.0125,-.021651,0.0*
1,1,0.0,-.0125,-.021651*
20,1,0.0,-.0125,-.021651,-.01607,-.019151,0.0*
1,1,0.0,-.01607,-.019151*
20,1,0.0,-.01607,-.019151,-.019151,-.01607,0.0*
1,1,0.0,-.019151,-.01607*
20,1,0.0,-.019151,-.01607,-.021651,-.0125,0.0*
1,1,0.0,-.021651,-.0125*
20,1,0.0,-.021651,-.0125,-.023492,-.008551,0.0*
1,1,0.0,-.023492,-.008551*
20,1,0.0,-.023492,-.008551,-.02462,-.004341,0.0*
1,1,0.0,-.02462,-.004341*
20,1,0.0,-.02462,-.004341,-.025,0.0,0.0*
1,1,0.0,-.025,0.0*
20,1,0.0,-.025,0.0,-.02462,.004341,0.0*
1,1,0.0,-.02462,.004341*
20,1,0.0,-.02462,.004341,-.023492,.008551,0.0*
1,1,0.0,-.023492,.008551*
20,1,0.0,-.023492,.008551,-.021651,.0125,0.0*
1,1,0.0,-.021651,.0125*
20,1,0.0,-.021651,.0125,-.019151,.01607,0.0*
1,1,0.0,-.019151,.01607*
20,1,0.0,-.019151,.01607,-.01607,.019151,0.0*
1,1,0.0,-.01607,.019151*
20,1,0.0,-.01607,.019151,-.0125,.021651,0.0*
1,1,0.0,-.0125,.021651*
20,1,0.0,-.0125,.021651,-.008551,.023492,0.0*
1,1,0.0,-.008551,.023492*
20,1,0.0,-.008551,.023492,-.004341,.02462,0.0*
1,1,0.0,-.004341,.02462*
20,1,0.0,-.004341,.02462,0.0,.025,0.0*
1,1,0.0,0.0,.025*
20,1,0.0,0.0,.025,.004341,.02462,0.0*
1,1,0.0,.004341,.02462*
20,1,0.0,.004341,.02462,.008551,.023492,0.0*
1,1,0.0,.008551,.023492*
20,1,0.0,.008551,.023492,.0125,.021651,0.0*
1,1,0.0,.0125,.021651*
20,1,0.0,.0125,.021651,.01607,.019151,0.0*
1,1,0.0,.01607,.019151*
20,1,0.0,.01607,.019151,.019151,.01607,0.0*
1,1,0.0,.019151,.01607*
20,1,0.0,.019151,.01607,.021651,.0125,0.0*
1,1,0.0,.021651,.0125*
20,1,0.0,.021651,.0125,.023492,.008551,0.0*
1,1,0.0,.023492,.008551*
20,1,0.0,.023492,.008551,.02462,.004341,0.0*
1,1,0.0,.02462,.004341*
20,1,0.0,.02462,.004341,.025,0.0,0.0*
1,1,0.0,.025,0.0*
1,1,0.0,.0125,0.0*
20,1,0.0,.0125,0.0,-.0125,0.0,0.0*
1,1,0.0,-.0125,0.0*
1,1,0.0,0.0,.0125*
20,1,0.0,0.0,.0125,0.0,-.0125,0.0*
1,1,0.0,0.0,-.0125*
%
%ADD12MACRO12*%
%AMMACRO16*
1,1,0.0,.04,0.0*
20,1,0.0,.04,0.0,.039392,-.006946,0.0*
1,1,0.0,.039392,-.006946*
20,1,0.0,.039392,-.006946,.037588,-.013681,0.0*
1,1,0.0,.037588,-.013681*
20,1,0.0,.037588,-.013681,.034641,-.02,0.0*
1,1,0.0,.034641,-.02*
20,1,0.0,.034641,-.02,.030642,-.025712,0.0*
1,1,0.0,.030642,-.025712*
20,1,0.0,.030642,-.025712,.025712,-.030642,0.0*
1,1,0.0,.025712,-.030642*
20,1,0.0,.025712,-.030642,.02,-.034641,0.0*
1,1,0.0,.02,-.034641*
20,1,0.0,.02,-.034641,.013681,-.037588,0.0*
1,1,0.0,.013681,-.037588*
20,1,0.0,.013681,-.037588,.006946,-.039392,0.0*
1,1,0.0,.006946,-.039392*
20,1,0.0,.006946,-.039392,0.0,-.04,0.0*
1,1,0.0,0.0,-.04*
20,1,0.0,0.0,-.04,-.006946,-.039392,0.0*
1,1,0.0,-.006946,-.039392*
20,1,0.0,-.006946,-.039392,-.013681,-.037588,0.0*
1,1,0.0,-.013681,-.037588*
20,1,0.0,-.013681,-.037588,-.02,-.034641,0.0*
1,1,0.0,-.02,-.034641*
20,1,0.0,-.02,-.034641,-.025712,-.030642,0.0*
1,1,0.0,-.025712,-.030642*
20,1,0.0,-.025712,-.030642,-.030642,-.025712,0.0*
1,1,0.0,-.030642,-.025712*
20,1,0.0,-.030642,-.025712,-.034641,-.02,0.0*
1,1,0.0,-.034641,-.02*
20,1,0.0,-.034641,-.02,-.037588,-.013681,0.0*
1,1,0.0,-.037588,-.013681*
20,1,0.0,-.037588,-.013681,-.039392,-.006946,0.0*
1,1,0.0,-.039392,-.006946*
20,1,0.0,-.039392,-.006946,-.04,0.0,0.0*
1,1,0.0,-.04,0.0*
20,1,0.0,-.04,0.0,-.039392,.006946,0.0*
1,1,0.0,-.039392,.006946*
20,1,0.0,-.039392,.006946,-.037588,.013681,0.0*
1,1,0.0,-.037588,.013681*
20,1,0.0,-.037588,.013681,-.034641,.02,0.0*
1,1,0.0,-.034641,.02*
20,1,0.0,-.034641,.02,-.030642,.025712,0.0*
1,1,0.0,-.030642,.025712*
20,1,0.0,-.030642,.025712,-.025712,.030642,0.0*
1,1,0.0,-.025712,.030642*
20,1,0.0,-.025712,.030642,-.02,.034641,0.0*
1,1,0.0,-.02,.034641*
20,1,0.0,-.02,.034641,-.013681,.037588,0.0*
1,1,0.0,-.013681,.037588*
20,1,0.0,-.013681,.037588,-.006946,.039392,0.0*
1,1,0.0,-.006946,.039392*
20,1,0.0,-.006946,.039392,0.0,.04,0.0*
1,1,0.0,0.0,.04*
20,1,0.0,0.0,.04,.006946,.039392,0.0*
1,1,0.0,.006946,.039392*
20,1,0.0,.006946,.039392,.013681,.037588,0.0*
1,1,0.0,.013681,.037588*
20,1,0.0,.013681,.037588,.02,.034641,0.0*
1,1,0.0,.02,.034641*
20,1,0.0,.02,.034641,.025712,.030642,0.0*
1,1,0.0,.025712,.030642*
20,1,0.0,.025712,.030642,.030642,.025712,0.0*
1,1,0.0,.030642,.025712*
20,1,0.0,.030642,.025712,.034641,.02,0.0*
1,1,0.0,.034641,.02*
20,1,0.0,.034641,.02,.037588,.013681,0.0*
1,1,0.0,.037588,.013681*
20,1,0.0,.037588,.013681,.039392,.006946,0.0*
1,1,0.0,.039392,.006946*
20,1,0.0,.039392,.006946,.04,0.0,0.0*
1,1,0.0,.04,0.0*
1,1,0.0,.02,0.0*
20,1,0.0,.02,0.0,-.02,0.0,0.0*
1,1,0.0,-.02,0.0*
1,1,0.0,0.0,.02*
20,1,0.0,0.0,.02,0.0,-.02,0.0*
1,1,0.0,0.0,-.02*
%
%ADD16MACRO16*%
%AMMACRO11*
1,1,0.0,.0197,0.0*
20,1,0.0,.0197,0.0,-.0197,0.0,0.0*
1,1,0.0,-.0197,0.0*
1,1,0.0,0.0,.0197*
20,1,0.0,0.0,.0197,0.0,-.0197,0.0*
1,1,0.0,0.0,-.0197*
%
%ADD11MACRO11*%
%AMMACRO13*
1,1,0.0,0.0,.02*
20,1,0.0,0.0,.02,.02,-.02,0.0*
1,1,0.0,.02,-.02*
20,1,0.0,.02,-.02,-.02,-.02,0.0*
1,1,0.0,-.02,-.02*
20,1,0.0,-.02,-.02,0.0,.02,0.0*
1,1,0.0,0.0,.02*
1,1,0.0,.006,-.0167*
20,1,0.0,.006,-.0167,.006,.0033,0.0*
1,1,0.0,.006,.0033*
1,1,0.0,.006,.0003*
20,1,0.0,.006,.0003,.0043,.002,0.0*
1,1,0.0,.0043,.002*
20,1,0.0,.0043,.002,.0023,.003,0.0*
1,1,0.0,.0023,.003*
20,1,0.0,.0023,.003,0.0,.0033,0.0*
1,1,0.0,0.0,.0033*
20,1,0.0,0.0,.0033,-.002,.003,0.0*
1,1,0.0,-.002,.003*
20,1,0.0,-.002,.003,-.0043,.0013,0.0*
1,1,0.0,-.0043,.0013*
20,1,0.0,-.0043,.0013,-.0057,-.001,0.0*
1,1,0.0,-.0057,-.001*
20,1,0.0,-.0057,-.001,-.006,-.0033,0.0*
1,1,0.0,-.006,-.0033*
20,1,0.0,-.006,-.0033,-.0057,-.0057,0.0*
1,1,0.0,-.0057,-.0057*
20,1,0.0,-.0057,-.0057,-.0043,-.008,0.0*
1,1,0.0,-.0043,-.008*
20,1,0.0,-.0043,-.008,-.002,-.0097,0.0*
1,1,0.0,-.002,-.0097*
20,1,0.0,-.002,-.0097,0.0,-.01,0.0*
1,1,0.0,0.0,-.01*
20,1,0.0,0.0,-.01,.0023,-.0097,0.0*
1,1,0.0,.0023,-.0097*
20,1,0.0,.0023,-.0097,.0043,-.0087,0.0*
1,1,0.0,.0043,-.0087*
20,1,0.0,.0043,-.0087,.006,-.007,0.0*
1,1,0.0,.006,-.007*
%
%ADD13MACRO13*%
%AMMACRO14*
1,1,0.0,0.0,.04*
20,1,0.0,0.0,.04,.04,-.04,0.0*
1,1,0.0,.04,-.04*
20,1,0.0,.04,-.04,-.04,-.04,0.0*
1,1,0.0,-.04,-.04*
20,1,0.0,-.04,-.04,0.0,.04,0.0*
1,1,0.0,0.0,.04*
1,1,0.0,.012,-.0333*
20,1,0.0,.012,-.0333,.012,.0067,0.0*
1,1,0.0,.012,.0067*
1,1,0.0,.012,.0007*
20,1,0.0,.012,.0007,.0087,.004,0.0*
1,1,0.0,.0087,.004*
20,1,0.0,.0087,.004,.0047,.006,0.0*
1,1,0.0,.0047,.006*
20,1,0.0,.0047,.006,0.0,.0067,0.0*
1,1,0.0,0.0,.0067*
20,1,0.0,0.0,.0067,-.004,.006,0.0*
1,1,0.0,-.004,.006*
20,1,0.0,-.004,.006,-.0087,.0027,0.0*
1,1,0.0,-.0087,.0027*
20,1,0.0,-.0087,.0027,-.0113,-.002,0.0*
1,1,0.0,-.0113,-.002*
20,1,0.0,-.0113,-.002,-.012,-.0067,0.0*
1,1,0.0,-.012,-.0067*
20,1,0.0,-.012,-.0067,-.0113,-.0113,0.0*
1,1,0.0,-.0113,-.0113*
20,1,0.0,-.0113,-.0113,-.0087,-.016,0.0*
1,1,0.0,-.0087,-.016*
20,1,0.0,-.0087,-.016,-.004,-.0193,0.0*
1,1,0.0,-.004,-.0193*
20,1,0.0,-.004,-.0193,0.0,-.02,0.0*
1,1,0.0,0.0,-.02*
20,1,0.0,0.0,-.02,.0047,-.0193,0.0*
1,1,0.0,.0047,-.0193*
20,1,0.0,.0047,-.0193,.0087,-.0173,0.0*
1,1,0.0,.0087,-.0173*
20,1,0.0,.0087,-.0173,.012,-.014,0.0*
1,1,0.0,.012,-.014*
%
%ADD14MACRO14*%
%AMMACRO15*
1,1,0.0,-.028,-.04*
20,1,0.0,-.028,-.04,.028,.04,0.0*
1,1,0.0,.028,.04*
1,1,0.0,-.028,.04*
20,1,0.0,-.028,.04,.028,-.04,0.0*
1,1,0.0,.028,-.04*
%
%ADD15MACRO15*%
%AMMACRO10*
1,1,0.0,-.0263,-.0375*
20,1,0.0,-.0263,-.0375,.0263,.0375,0.0*
1,1,0.0,.0263,.0375*
1,1,0.0,-.0263,.0375*
20,1,0.0,-.0263,.0375,.0263,-.0375,0.0*
1,1,0.0,.0263,-.0375*
%
%ADD10MACRO10*%
%ADD18C,.005*%
%ADD19C,.05*%
%ADD20C,.025*%
G75*
%LPD*%
G75*
G54D10*
X-199000Y-199000D03*
Y35500D03*
X159000Y-199000D03*
Y35500D03*
G54D20*
G01X-208500Y45500D02*
X169000D01*
Y-209000D01*
X-209000D01*
Y45000D01*
X-208500Y45500D01*
G54D11*
X-175000Y-165000D03*
Y-155000D03*
Y-110000D03*
Y-100000D03*
Y-50000D03*
Y-40000D03*
X-147500Y-5000D03*
Y-15000D03*
X-25000Y-120000D03*
Y-110000D03*
Y-100000D03*
Y-90000D03*
Y-80000D03*
Y-70000D03*
Y-60000D03*
Y-50000D03*
Y-40000D03*
Y-30000D03*
X5000Y-100000D03*
Y-110000D03*
Y-120000D03*
Y-70000D03*
Y-80000D03*
Y-90000D03*
Y-40000D03*
Y-50000D03*
Y-60000D03*
Y-30000D03*
X77500Y-77260D03*
Y-72340D03*
Y-67420D03*
Y-62500D03*
X117500Y-67500D03*
Y-77500D03*
Y-35000D03*
Y-57500D03*
Y-15000D03*
Y-25000D03*
Y7500D03*
Y17500D03*
G54D12*
X-160000Y-175000D03*
Y-150000D03*
X-150830Y-165000D03*
X-150000Y-145000D03*
X-137000Y-13000D03*
X-130000Y-12500D03*
X-137000Y-500D03*
X-130000Y0D03*
X-104170Y-125830D03*
X-125000Y-135000D03*
X-120000Y-70000D03*
X-123200Y-22500D03*
X-79220Y-170780D03*
X-85000Y-155000D03*
Y-140000D03*
X-75000Y-105000D03*
X-82500Y-17500D03*
Y-10500D03*
X-97500Y-15000D03*
X-82500Y-2500D03*
X-70000D03*
X-55500Y-159500D03*
X-62500Y-17500D03*
X17500Y-75500D03*
X1670Y-5830D03*
X5000Y-17500D03*
X15000Y-12500D03*
X20500Y-6000D03*
X45000Y-161690D03*
X48330Y-140830D03*
X32500Y-121500D03*
X42500Y-65000D03*
X49000Y-83500D03*
X27500Y-55000D03*
X72780Y-135280D03*
X62500Y-115000D03*
X84170Y-170830D03*
X107220Y-135280D03*
X100000Y-122500D03*
X90810Y-118310D03*
X105000Y-60000D03*
X88310Y-6690D03*
X131670Y-178330D03*
G54D13*
X39130Y-37340D03*
Y-17660D03*
X78500Y-27500D03*
G54D14*
X209500Y-245500D03*
G54D15*
Y-255500D03*
G54D16*
Y-215500D03*
G54D17*
Y-225500D03*
Y-235500D03*
Y-205500D03*
G54D18*
G01X195550Y-198000D02*
Y-193000D01*
X197950D01*
G01X197070Y-195420D02*
X195550D01*
G01X201090Y-193000D02*
X202610D01*
G01X201850D02*
Y-198000D01*
G01X201090D02*
X202610D01*
G01X207330Y-195500D02*
X208600D01*
Y-197000D01*
X208220Y-197500D01*
X207770Y-197830D01*
X207140Y-198000D01*
X206510Y-197830D01*
X206060Y-197500D01*
X205680Y-197000D01*
X205430Y-196420D01*
X205300Y-195750D01*
Y-195170D01*
X205430Y-194670D01*
X205680Y-194080D01*
X206060Y-193580D01*
X206440Y-193250D01*
X206950Y-193000D01*
X207390D01*
X207900Y-193170D01*
X208280Y-193500D01*
G01X210660Y-193000D02*
Y-196580D01*
X210910Y-197330D01*
X211420Y-197830D01*
X212050Y-198000D01*
X212680Y-197830D01*
X213190Y-197330D01*
X213440Y-196580D01*
Y-193000D01*
G01X215880Y-198000D02*
Y-193000D01*
X217470D01*
X217970Y-193250D01*
X218290Y-193580D01*
X218420Y-194250D01*
X218290Y-194920D01*
X217910Y-195330D01*
X217470Y-195580D01*
X215880D01*
G01X217470D02*
X218420Y-198000D01*
G01X223520D02*
X220980D01*
Y-193000D01*
X223520D01*
G01X222500Y-195420D02*
X220980D01*
G01X225360Y-163000D02*
Y-158000D01*
X226620D01*
X227130Y-158250D01*
X227510Y-158580D01*
X227830Y-159080D01*
X228080Y-159670D01*
X228140Y-160500D01*
X228080Y-161330D01*
X227830Y-161920D01*
X227510Y-162420D01*
X227130Y-162750D01*
X226620Y-163000D01*
X225360D01*
G01X230580D02*
Y-158000D01*
X232170D01*
X232670Y-158250D01*
X232990Y-158580D01*
X233120Y-159250D01*
X232990Y-159920D01*
X232610Y-160330D01*
X232170Y-160580D01*
X230580D01*
G01X232170D02*
X233120Y-163000D01*
G01X236190Y-158000D02*
X237710D01*
G01X236950D02*
Y-163000D01*
G01X236190D02*
X237710D01*
G01X240780Y-158000D02*
Y-163000D01*
X243320D01*
G01X245880Y-158000D02*
Y-163000D01*
X248420D01*
G01X258740Y-158420D02*
X258360Y-158170D01*
X257920Y-158000D01*
X257410D01*
X256840Y-158250D01*
X256400Y-158670D01*
X256080Y-159170D01*
X255830Y-160000D01*
X255770Y-160750D01*
X255890Y-161500D01*
X256080Y-162000D01*
X256460Y-162500D01*
X256910Y-162830D01*
X257350Y-163000D01*
X257790D01*
X258240Y-162830D01*
X258620Y-162580D01*
X258930Y-162250D01*
G01X261120Y-163000D02*
Y-158000D01*
G01X263780D02*
Y-163000D01*
G01Y-160500D02*
X261120D01*
G01X265970Y-163000D02*
X267550Y-158000D01*
X269130Y-163000D01*
G01X268560Y-161250D02*
X266540D01*
G01X271380Y-163000D02*
Y-158000D01*
X272970D01*
X273470Y-158250D01*
X273790Y-158580D01*
X273920Y-159250D01*
X273790Y-159920D01*
X273410Y-160330D01*
X272970Y-160580D01*
X271380D01*
G01X272970D02*
X273920Y-163000D01*
G01X277750Y-158000D02*
Y-163000D01*
G01X276290Y-158000D02*
X279210D01*
G01X282850Y-163170D02*
X282720Y-163080D01*
Y-162920D01*
X282850Y-162830D01*
X282980Y-162920D01*
Y-163080D01*
X282850Y-163170D01*
G01Y-160920D02*
X282720Y-160830D01*
Y-160670D01*
X282850Y-160580D01*
X282980Y-160670D01*
Y-160830D01*
X282850Y-160920D01*
G01X293050Y-158000D02*
Y-163000D01*
G01X291590Y-158000D02*
X294510D01*
G01X298150Y-163000D02*
X297640Y-162920D01*
X297200Y-162580D01*
X296820Y-162080D01*
X296570Y-161500D01*
X296440Y-160830D01*
Y-160170D01*
X296570Y-159500D01*
X296820Y-158920D01*
X297200Y-158420D01*
X297640Y-158080D01*
X298150Y-158000D01*
X298660Y-158080D01*
X299100Y-158420D01*
X299480Y-158920D01*
X299730Y-159500D01*
X299860Y-160170D01*
Y-160830D01*
X299730Y-161500D01*
X299480Y-162080D01*
X299100Y-162580D01*
X298660Y-162920D01*
X298150Y-163000D01*
G01X301980D02*
Y-158000D01*
X303500D01*
X304010Y-158250D01*
X304390Y-158830D01*
X304520Y-159500D01*
X304390Y-160170D01*
X304070Y-160670D01*
X303500Y-160920D01*
X301980D01*
G01X313450Y-158000D02*
Y-163000D01*
G01X312560Y-159670D02*
X314340D01*
G01X318550Y-163000D02*
X318170Y-162920D01*
X317790Y-162580D01*
X317540Y-162000D01*
X317410Y-161330D01*
X317540Y-160670D01*
X317790Y-160080D01*
X318170Y-159750D01*
X318550Y-159670D01*
X318930Y-159750D01*
X319310Y-160080D01*
X319560Y-160670D01*
X319630Y-161330D01*
X319560Y-162000D01*
X319310Y-162580D01*
X318930Y-162920D01*
X318550Y-163000D01*
G01X329260Y-160330D02*
X329510Y-160080D01*
X329700Y-159670D01*
X329830Y-159080D01*
X329700Y-158580D01*
X329450Y-158250D01*
X329000Y-158000D01*
X327290D01*
Y-163000D01*
X329380D01*
X329830Y-162670D01*
X330080Y-162170D01*
X330210Y-161580D01*
X330080Y-161000D01*
X329700Y-160500D01*
X329260Y-160330D01*
X327290D01*
G01X333850Y-163000D02*
X333340Y-162920D01*
X332900Y-162580D01*
X332520Y-162080D01*
X332270Y-161500D01*
X332140Y-160830D01*
Y-160170D01*
X332270Y-159500D01*
X332520Y-158920D01*
X332900Y-158420D01*
X333340Y-158080D01*
X333850Y-158000D01*
X334360Y-158080D01*
X334800Y-158420D01*
X335180Y-158920D01*
X335430Y-159500D01*
X335560Y-160170D01*
Y-160830D01*
X335430Y-161500D01*
X335180Y-162080D01*
X334800Y-162580D01*
X334360Y-162920D01*
X333850Y-163000D01*
G01X338950Y-158000D02*
Y-163000D01*
G01X337490Y-158000D02*
X340410D01*
G01X344050D02*
Y-163000D01*
G01X342590Y-158000D02*
X345510D01*
G01X349150Y-163000D02*
X348640Y-162920D01*
X348200Y-162580D01*
X347820Y-162080D01*
X347570Y-161500D01*
X347440Y-160830D01*
Y-160170D01*
X347570Y-159500D01*
X347820Y-158920D01*
X348200Y-158420D01*
X348640Y-158080D01*
X349150Y-158000D01*
X349660Y-158080D01*
X350100Y-158420D01*
X350480Y-158920D01*
X350730Y-159500D01*
X350860Y-160170D01*
Y-160830D01*
X350730Y-161500D01*
X350480Y-162080D01*
X350100Y-162580D01*
X349660Y-162920D01*
X349150Y-163000D01*
G01X352600D02*
Y-158000D01*
X354250Y-162170D01*
X355900Y-158000D01*
Y-163000D01*
G01X260010Y-248000D02*
Y-243000D01*
X257670Y-246580D01*
X260830D01*
G01X263270Y-247420D02*
X263720Y-247830D01*
X264220Y-248000D01*
X264730Y-247830D01*
X265170Y-247330D01*
X265490Y-246580D01*
X265620Y-245830D01*
Y-244920D01*
X265490Y-244170D01*
X265170Y-243500D01*
X264790Y-243170D01*
X264350Y-243000D01*
X263840Y-243170D01*
X263460Y-243500D01*
X263210Y-244000D01*
X263080Y-244670D01*
X263210Y-245250D01*
X263530Y-245830D01*
X263910Y-246170D01*
X264350Y-246250D01*
X264860Y-246080D01*
X265240Y-245670D01*
X265620Y-244920D01*
G01X269450Y-248170D02*
X269320Y-248080D01*
Y-247920D01*
X269450Y-247830D01*
X269580Y-247920D01*
Y-248080D01*
X269450Y-248170D01*
G01X273350Y-243830D02*
X273730Y-243330D01*
X274170Y-243080D01*
X274680Y-243000D01*
X275310Y-243170D01*
X275750Y-243580D01*
X275880Y-244080D01*
X275820Y-244580D01*
X275560Y-245000D01*
X274300Y-245830D01*
X273730Y-246420D01*
X273350Y-247250D01*
X273220Y-248000D01*
X275880D01*
G01X256700Y-258000D02*
Y-253000D01*
X255940Y-254000D01*
G01Y-258000D02*
X257460D01*
G01X260600Y-253830D02*
X260980Y-253330D01*
X261420Y-253080D01*
X261930Y-253000D01*
X262560Y-253170D01*
X263000Y-253580D01*
X263130Y-254080D01*
X263070Y-254580D01*
X262810Y-255000D01*
X261550Y-255830D01*
X260980Y-256420D01*
X260600Y-257250D01*
X260470Y-258000D01*
X263130D01*
G01X265510Y-257250D02*
X265890Y-257670D01*
X266330Y-257920D01*
X266900Y-258000D01*
X267470Y-257830D01*
X267910Y-257500D01*
X268230Y-256920D01*
X268290Y-256250D01*
X268170Y-255580D01*
X267850Y-255170D01*
X267410Y-254830D01*
X266960Y-254750D01*
X266520Y-254830D01*
X265950Y-255170D01*
X266140Y-253000D01*
X267850D01*
G01X272000Y-258170D02*
X271870Y-258080D01*
Y-257920D01*
X272000Y-257830D01*
X272130Y-257920D01*
Y-258080D01*
X272000Y-258170D01*
G01X277100Y-253000D02*
X276590Y-253170D01*
X276210Y-253580D01*
X275960Y-254080D01*
X275770Y-254750D01*
X275710Y-255500D01*
X275770Y-256250D01*
X275960Y-256920D01*
X276210Y-257420D01*
X276590Y-257830D01*
X277100Y-258000D01*
X277610Y-257830D01*
X277990Y-257420D01*
X278240Y-256920D01*
X278430Y-256250D01*
X278490Y-255500D01*
X278430Y-254750D01*
X278240Y-254080D01*
X277990Y-253580D01*
X277610Y-253170D01*
X277100Y-253000D01*
G01X259250Y-218000D02*
Y-213000D01*
X258490Y-214000D01*
G01Y-218000D02*
X260010D01*
G01X263270Y-217420D02*
X263720Y-217830D01*
X264220Y-218000D01*
X264730Y-217830D01*
X265170Y-217330D01*
X265490Y-216580D01*
X265620Y-215830D01*
Y-214920D01*
X265490Y-214170D01*
X265170Y-213500D01*
X264790Y-213170D01*
X264350Y-213000D01*
X263840Y-213170D01*
X263460Y-213500D01*
X263210Y-214000D01*
X263080Y-214670D01*
X263210Y-215250D01*
X263530Y-215830D01*
X263910Y-216170D01*
X264350Y-216250D01*
X264860Y-216080D01*
X265240Y-215670D01*
X265620Y-214920D01*
G01X269450Y-218170D02*
X269320Y-218080D01*
Y-217920D01*
X269450Y-217830D01*
X269580Y-217920D01*
Y-218080D01*
X269450Y-218170D01*
G01X274420Y-218000D02*
X274550Y-216920D01*
X274740Y-216000D01*
X274990Y-215170D01*
X275310Y-214250D01*
X275820Y-213000D01*
X273280D01*
G01X259250Y-228000D02*
Y-223000D01*
X258490Y-224000D01*
G01Y-228000D02*
X260010D01*
G01X263270Y-227420D02*
X263720Y-227830D01*
X264220Y-228000D01*
X264730Y-227830D01*
X265170Y-227330D01*
X265490Y-226580D01*
X265620Y-225830D01*
Y-224920D01*
X265490Y-224170D01*
X265170Y-223500D01*
X264790Y-223170D01*
X264350Y-223000D01*
X263840Y-223170D01*
X263460Y-223500D01*
X263210Y-224000D01*
X263080Y-224670D01*
X263210Y-225250D01*
X263530Y-225830D01*
X263910Y-226170D01*
X264350Y-226250D01*
X264860Y-226080D01*
X265240Y-225670D01*
X265620Y-224920D01*
G01X269450Y-228170D02*
X269320Y-228080D01*
Y-227920D01*
X269450Y-227830D01*
X269580Y-227920D01*
Y-228080D01*
X269450Y-228170D01*
G01X274420Y-228000D02*
X274550Y-226920D01*
X274740Y-226000D01*
X274990Y-225170D01*
X275310Y-224250D01*
X275820Y-223000D01*
X273280D01*
G01X257860Y-237000D02*
X258240Y-237580D01*
X258740Y-237920D01*
X259310Y-238000D01*
X259820Y-237920D01*
X260330Y-237500D01*
X260640Y-237000D01*
X260710Y-236500D01*
X260580Y-235920D01*
X260140Y-235500D01*
X259690Y-235330D01*
X259120D01*
G01X259690D02*
X260070Y-235080D01*
X260390Y-234670D01*
X260520Y-234170D01*
X260390Y-233670D01*
X260070Y-233250D01*
X259500Y-233000D01*
X258930Y-233080D01*
X258360Y-233420D01*
G01X263270Y-237420D02*
X263720Y-237830D01*
X264220Y-238000D01*
X264730Y-237830D01*
X265170Y-237330D01*
X265490Y-236580D01*
X265620Y-235830D01*
Y-234920D01*
X265490Y-234170D01*
X265170Y-233500D01*
X264790Y-233170D01*
X264350Y-233000D01*
X263840Y-233170D01*
X263460Y-233500D01*
X263210Y-234000D01*
X263080Y-234670D01*
X263210Y-235250D01*
X263530Y-235830D01*
X263910Y-236170D01*
X264350Y-236250D01*
X264860Y-236080D01*
X265240Y-235670D01*
X265620Y-234920D01*
G01X269450Y-238170D02*
X269320Y-238080D01*
Y-237920D01*
X269450Y-237830D01*
X269580Y-237920D01*
Y-238080D01*
X269450Y-238170D01*
G01X275310Y-238000D02*
Y-233000D01*
X272970Y-236580D01*
X276130D01*
G01X237920Y-188000D02*
X239500Y-183000D01*
X241080Y-188000D01*
G01X240510Y-186250D02*
X238490D01*
G01X243330Y-183000D02*
Y-188000D01*
X245870D01*
G01X248430Y-183000D02*
Y-188000D01*
X250970D01*
G01X258510Y-183000D02*
Y-186580D01*
X258760Y-187330D01*
X259270Y-187830D01*
X259900Y-188000D01*
X260530Y-187830D01*
X261040Y-187330D01*
X261290Y-186580D01*
Y-183000D01*
G01X263540Y-188000D02*
Y-183000D01*
X266460Y-188000D01*
Y-183000D01*
G01X269340D02*
X270860D01*
G01X270100D02*
Y-188000D01*
G01X269340D02*
X270860D01*
G01X275200Y-183000D02*
Y-188000D01*
G01X273740Y-183000D02*
X276660D01*
G01X278970Y-187330D02*
X279480Y-187750D01*
X280050Y-188000D01*
X280550D01*
X281060Y-187750D01*
X281440Y-187330D01*
X281630Y-186750D01*
X281500Y-186170D01*
X281190Y-185670D01*
X280620Y-185330D01*
X279860Y-185170D01*
X279410Y-184830D01*
X279220Y-184250D01*
X279350Y-183670D01*
X279670Y-183250D01*
X280110Y-183000D01*
X280550D01*
X281000Y-183170D01*
X281380Y-183580D01*
G01X288920Y-188000D02*
X290500Y-183000D01*
X292080Y-188000D01*
G01X291510Y-186250D02*
X289490D01*
G01X294330Y-188000D02*
Y-183000D01*
X295920D01*
X296420Y-183250D01*
X296740Y-183580D01*
X296870Y-184250D01*
X296740Y-184920D01*
X296360Y-185330D01*
X295920Y-185580D01*
X294330D01*
G01X295920D02*
X296870Y-188000D01*
G01X301970D02*
X299430D01*
Y-183000D01*
X301970D01*
G01X300950Y-185420D02*
X299430D01*
G01X310140Y-183000D02*
X311660D01*
G01X310900D02*
Y-188000D01*
G01X310140D02*
X311660D01*
G01X314540D02*
Y-183000D01*
X317460Y-188000D01*
Y-183000D01*
G01X324550Y-188000D02*
Y-183000D01*
X326200Y-187170D01*
X327850Y-183000D01*
Y-188000D01*
G01X330540Y-183000D02*
X332060D01*
G01X331300D02*
Y-188000D01*
G01X330540D02*
X332060D01*
G01X335130Y-183000D02*
Y-188000D01*
X337670D01*
G01X340170Y-187330D02*
X340680Y-187750D01*
X341250Y-188000D01*
X341750D01*
X342260Y-187750D01*
X342640Y-187330D01*
X342830Y-186750D01*
X342700Y-186170D01*
X342390Y-185670D01*
X341820Y-185330D01*
X341060Y-185170D01*
X340610Y-184830D01*
X340420Y-184250D01*
X340550Y-183670D01*
X340870Y-183250D01*
X341310Y-183000D01*
X341750D01*
X342200Y-183170D01*
X342580Y-183580D01*
G01X257920Y-197330D02*
X258430Y-197750D01*
X259000Y-198000D01*
X259500D01*
X260010Y-197750D01*
X260390Y-197330D01*
X260580Y-196750D01*
X260450Y-196170D01*
X260140Y-195670D01*
X259570Y-195330D01*
X258810Y-195170D01*
X258360Y-194830D01*
X258170Y-194250D01*
X258300Y-193670D01*
X258620Y-193250D01*
X259060Y-193000D01*
X259500D01*
X259950Y-193170D01*
X260330Y-193580D01*
G01X263590Y-193000D02*
X265110D01*
G01X264350D02*
Y-198000D01*
G01X263590D02*
X265110D01*
G01X268250Y-193000D02*
X270650D01*
X268250Y-198000D01*
X270650D01*
G01X275820D02*
X273280D01*
Y-193000D01*
X275820D01*
G01X274800Y-195420D02*
X273280D01*
G01X256700Y-208000D02*
Y-203000D01*
X255940Y-204000D01*
G01Y-208000D02*
X257460D01*
G01X260720Y-207420D02*
X261170Y-207830D01*
X261670Y-208000D01*
X262180Y-207830D01*
X262620Y-207330D01*
X262940Y-206580D01*
X263070Y-205830D01*
Y-204920D01*
X262940Y-204170D01*
X262620Y-203500D01*
X262240Y-203170D01*
X261800Y-203000D01*
X261290Y-203170D01*
X260910Y-203500D01*
X260660Y-204000D01*
X260530Y-204670D01*
X260660Y-205250D01*
X260980Y-205830D01*
X261360Y-206170D01*
X261800Y-206250D01*
X262310Y-206080D01*
X262690Y-205670D01*
X263070Y-204920D01*
G01X266900Y-208170D02*
X266770Y-208080D01*
Y-207920D01*
X266900Y-207830D01*
X267030Y-207920D01*
Y-208080D01*
X266900Y-208170D01*
G01X270800Y-205920D02*
X271240Y-205330D01*
X271620Y-205000D01*
X272130Y-204830D01*
X272570Y-205000D01*
X272890Y-205330D01*
X273140Y-205830D01*
X273200Y-206420D01*
X273140Y-206920D01*
X272890Y-207420D01*
X272510Y-207830D01*
X272060Y-208000D01*
X271560Y-207830D01*
X271110Y-207330D01*
X270860Y-206580D01*
X270800Y-205750D01*
X270920Y-204670D01*
X271110Y-204080D01*
X271430Y-203500D01*
X271870Y-203080D01*
X272320Y-203000D01*
X272760Y-203170D01*
X273080Y-203580D01*
G01X276020Y-207420D02*
X276470Y-207830D01*
X276970Y-208000D01*
X277480Y-207830D01*
X277920Y-207330D01*
X278240Y-206580D01*
X278370Y-205830D01*
Y-204920D01*
X278240Y-204170D01*
X277920Y-203500D01*
X277540Y-203170D01*
X277100Y-203000D01*
X276590Y-203170D01*
X276210Y-203500D01*
X275960Y-204000D01*
X275830Y-204670D01*
X275960Y-205250D01*
X276280Y-205830D01*
X276660Y-206170D01*
X277100Y-206250D01*
X277610Y-206080D01*
X277990Y-205670D01*
X278370Y-204920D01*
G01X317930Y-248000D02*
Y-243000D01*
X319450D01*
X319960Y-243250D01*
X320340Y-243830D01*
X320470Y-244500D01*
X320340Y-245170D01*
X320020Y-245670D01*
X319450Y-245920D01*
X317930D01*
G01X323030Y-243000D02*
Y-248000D01*
X325570D01*
G01X327820D02*
X329400Y-243000D01*
X330980Y-248000D01*
G01X330410Y-246250D02*
X328390D01*
G01X334500Y-243000D02*
Y-248000D01*
G01X333040Y-243000D02*
X335960D01*
G01X340870Y-248000D02*
X338330D01*
Y-243000D01*
X340870D01*
G01X339850Y-245420D02*
X338330D01*
G01X343310Y-248000D02*
Y-243000D01*
X344570D01*
X345080Y-243250D01*
X345460Y-243580D01*
X345780Y-244080D01*
X346030Y-244670D01*
X346090Y-245500D01*
X346030Y-246330D01*
X345780Y-246920D01*
X345460Y-247420D01*
X345080Y-247750D01*
X344570Y-248000D01*
X343310D01*
G01X307540Y-258000D02*
Y-253000D01*
X310460Y-258000D01*
Y-253000D01*
G01X314100Y-258000D02*
X313590Y-257920D01*
X313150Y-257580D01*
X312770Y-257080D01*
X312520Y-256500D01*
X312390Y-255830D01*
Y-255170D01*
X312520Y-254500D01*
X312770Y-253920D01*
X313150Y-253420D01*
X313590Y-253080D01*
X314100Y-253000D01*
X314610Y-253080D01*
X315050Y-253420D01*
X315430Y-253920D01*
X315680Y-254500D01*
X315810Y-255170D01*
Y-255830D01*
X315680Y-256500D01*
X315430Y-257080D01*
X315050Y-257580D01*
X314610Y-257920D01*
X314100Y-258000D01*
G01X317740D02*
Y-253000D01*
X320660Y-258000D01*
Y-253000D01*
G01X323480Y-256330D02*
X325120D01*
G01X328130Y-258000D02*
Y-253000D01*
X329650D01*
X330160Y-253250D01*
X330540Y-253830D01*
X330670Y-254500D01*
X330540Y-255170D01*
X330220Y-255670D01*
X329650Y-255920D01*
X328130D01*
G01X333230Y-253000D02*
Y-258000D01*
X335770D01*
G01X338020D02*
X339600Y-253000D01*
X341180Y-258000D01*
G01X340610Y-256250D02*
X338590D01*
G01X344700Y-253000D02*
Y-258000D01*
G01X343240Y-253000D02*
X346160D01*
G01X351070Y-258000D02*
X348530D01*
Y-253000D01*
X351070D01*
G01X350050Y-255420D02*
X348530D01*
G01X353510Y-258000D02*
Y-253000D01*
X354770D01*
X355280Y-253250D01*
X355660Y-253580D01*
X355980Y-254080D01*
X356230Y-254670D01*
X356290Y-255500D01*
X356230Y-256330D01*
X355980Y-256920D01*
X355660Y-257420D01*
X355280Y-257750D01*
X354770Y-258000D01*
X353510D01*
G01X317930Y-218000D02*
Y-213000D01*
X319450D01*
X319960Y-213250D01*
X320340Y-213830D01*
X320470Y-214500D01*
X320340Y-215170D01*
X320020Y-215670D01*
X319450Y-215920D01*
X317930D01*
G01X323030Y-213000D02*
Y-218000D01*
X325570D01*
G01X327820D02*
X329400Y-213000D01*
X330980Y-218000D01*
G01X330410Y-216250D02*
X328390D01*
G01X334500Y-213000D02*
Y-218000D01*
G01X333040Y-213000D02*
X335960D01*
G01X340870Y-218000D02*
X338330D01*
Y-213000D01*
X340870D01*
G01X339850Y-215420D02*
X338330D01*
G01X343310Y-218000D02*
Y-213000D01*
X344570D01*
X345080Y-213250D01*
X345460Y-213580D01*
X345780Y-214080D01*
X346030Y-214670D01*
X346090Y-215500D01*
X346030Y-216330D01*
X345780Y-216920D01*
X345460Y-217420D01*
X345080Y-217750D01*
X344570Y-218000D01*
X343310D01*
G01X317930Y-228000D02*
Y-223000D01*
X319450D01*
X319960Y-223250D01*
X320340Y-223830D01*
X320470Y-224500D01*
X320340Y-225170D01*
X320020Y-225670D01*
X319450Y-225920D01*
X317930D01*
G01X323030Y-223000D02*
Y-228000D01*
X325570D01*
G01X327820D02*
X329400Y-223000D01*
X330980Y-228000D01*
G01X330410Y-226250D02*
X328390D01*
G01X334500Y-223000D02*
Y-228000D01*
G01X333040Y-223000D02*
X335960D01*
G01X340870Y-228000D02*
X338330D01*
Y-223000D01*
X340870D01*
G01X339850Y-225420D02*
X338330D01*
G01X343310Y-228000D02*
Y-223000D01*
X344570D01*
X345080Y-223250D01*
X345460Y-223580D01*
X345780Y-224080D01*
X346030Y-224670D01*
X346090Y-225500D01*
X346030Y-226330D01*
X345780Y-226920D01*
X345460Y-227420D01*
X345080Y-227750D01*
X344570Y-228000D01*
X343310D01*
G01X317930Y-238000D02*
Y-233000D01*
X319450D01*
X319960Y-233250D01*
X320340Y-233830D01*
X320470Y-234500D01*
X320340Y-235170D01*
X320020Y-235670D01*
X319450Y-235920D01*
X317930D01*
G01X323030Y-233000D02*
Y-238000D01*
X325570D01*
G01X327820D02*
X329400Y-233000D01*
X330980Y-238000D01*
G01X330410Y-236250D02*
X328390D01*
G01X334500Y-233000D02*
Y-238000D01*
G01X333040Y-233000D02*
X335960D01*
G01X340870Y-238000D02*
X338330D01*
Y-233000D01*
X340870D01*
G01X339850Y-235420D02*
X338330D01*
G01X343310Y-238000D02*
Y-233000D01*
X344570D01*
X345080Y-233250D01*
X345460Y-233580D01*
X345780Y-234080D01*
X346030Y-234670D01*
X346090Y-235500D01*
X346030Y-236330D01*
X345780Y-236920D01*
X345460Y-237420D01*
X345080Y-237750D01*
X344570Y-238000D01*
X343310D01*
G01X317930Y-198000D02*
Y-193000D01*
X319450D01*
X319960Y-193250D01*
X320340Y-193830D01*
X320470Y-194500D01*
X320340Y-195170D01*
X320020Y-195670D01*
X319450Y-195920D01*
X317930D01*
G01X323030Y-193000D02*
Y-198000D01*
X325570D01*
G01X327820D02*
X329400Y-193000D01*
X330980Y-198000D01*
G01X330410Y-196250D02*
X328390D01*
G01X334500Y-193000D02*
Y-198000D01*
G01X333040Y-193000D02*
X335960D01*
G01X340870Y-198000D02*
X338330D01*
Y-193000D01*
X340870D01*
G01X339850Y-195420D02*
X338330D01*
G01X343310Y-198000D02*
Y-193000D01*
X344570D01*
X345080Y-193250D01*
X345460Y-193580D01*
X345780Y-194080D01*
X346030Y-194670D01*
X346090Y-195500D01*
X346030Y-196330D01*
X345780Y-196920D01*
X345460Y-197420D01*
X345080Y-197750D01*
X344570Y-198000D01*
X343310D01*
G01X317930Y-208000D02*
Y-203000D01*
X319450D01*
X319960Y-203250D01*
X320340Y-203830D01*
X320470Y-204500D01*
X320340Y-205170D01*
X320020Y-205670D01*
X319450Y-205920D01*
X317930D01*
G01X323030Y-203000D02*
Y-208000D01*
X325570D01*
G01X327820D02*
X329400Y-203000D01*
X330980Y-208000D01*
G01X330410Y-206250D02*
X328390D01*
G01X334500Y-203000D02*
Y-208000D01*
G01X333040Y-203000D02*
X335960D01*
G01X340870Y-208000D02*
X338330D01*
Y-203000D01*
X340870D01*
G01X339850Y-205420D02*
X338330D01*
G01X343310Y-208000D02*
Y-203000D01*
X344570D01*
X345080Y-203250D01*
X345460Y-203580D01*
X345780Y-204080D01*
X346030Y-204670D01*
X346090Y-205500D01*
X346030Y-206330D01*
X345780Y-206920D01*
X345460Y-207420D01*
X345080Y-207750D01*
X344570Y-208000D01*
X343310D01*
G01X372660Y-247000D02*
X373040Y-247580D01*
X373540Y-247920D01*
X374110Y-248000D01*
X374620Y-247920D01*
X375130Y-247500D01*
X375440Y-247000D01*
X375510Y-246500D01*
X375380Y-245920D01*
X374940Y-245500D01*
X374490Y-245330D01*
X373920D01*
G01X374490D02*
X374870Y-245080D01*
X375190Y-244670D01*
X375320Y-244170D01*
X375190Y-243670D01*
X374870Y-243250D01*
X374300Y-243000D01*
X373730Y-243080D01*
X373160Y-243420D01*
G01X374810Y-258000D02*
Y-253000D01*
X372470Y-256580D01*
X375630D01*
G01X372260Y-218000D02*
Y-213000D01*
X369920Y-216580D01*
X373080D01*
G01X375210Y-217000D02*
X375590Y-217580D01*
X376090Y-217920D01*
X376660Y-218000D01*
X377170Y-217920D01*
X377680Y-217500D01*
X377990Y-217000D01*
X378060Y-216500D01*
X377930Y-215920D01*
X377490Y-215500D01*
X377040Y-215330D01*
X376470D01*
G01X377040D02*
X377420Y-215080D01*
X377740Y-214670D01*
X377870Y-214170D01*
X377740Y-213670D01*
X377420Y-213250D01*
X376850Y-213000D01*
X376280Y-213080D01*
X375710Y-213420D01*
G01X372660Y-227000D02*
X373040Y-227580D01*
X373540Y-227920D01*
X374110Y-228000D01*
X374620Y-227920D01*
X375130Y-227500D01*
X375440Y-227000D01*
X375510Y-226500D01*
X375380Y-225920D01*
X374940Y-225500D01*
X374490Y-225330D01*
X373920D01*
G01X374490D02*
X374870Y-225080D01*
X375190Y-224670D01*
X375320Y-224170D01*
X375190Y-223670D01*
X374870Y-223250D01*
X374300Y-223000D01*
X373730Y-223080D01*
X373160Y-223420D01*
G01X370110Y-237000D02*
X370490Y-237580D01*
X370990Y-237920D01*
X371560Y-238000D01*
X372070Y-237920D01*
X372580Y-237500D01*
X372890Y-237000D01*
X372960Y-236500D01*
X372830Y-235920D01*
X372390Y-235500D01*
X371940Y-235330D01*
X371370D01*
G01X371940D02*
X372320Y-235080D01*
X372640Y-234670D01*
X372770Y-234170D01*
X372640Y-233670D01*
X372320Y-233250D01*
X371750Y-233000D01*
X371180Y-233080D01*
X370610Y-233420D01*
G01X375400Y-235920D02*
X375840Y-235330D01*
X376220Y-235000D01*
X376730Y-234830D01*
X377170Y-235000D01*
X377490Y-235330D01*
X377740Y-235830D01*
X377800Y-236420D01*
X377740Y-236920D01*
X377490Y-237420D01*
X377110Y-237830D01*
X376660Y-238000D01*
X376160Y-237830D01*
X375710Y-237330D01*
X375460Y-236580D01*
X375400Y-235750D01*
X375520Y-234670D01*
X375710Y-234080D01*
X376030Y-233500D01*
X376470Y-233080D01*
X376920Y-233000D01*
X377360Y-233170D01*
X377680Y-233580D01*
G01X368950Y-198000D02*
X368440Y-197920D01*
X368000Y-197580D01*
X367620Y-197080D01*
X367370Y-196500D01*
X367240Y-195830D01*
Y-195170D01*
X367370Y-194500D01*
X367620Y-193920D01*
X368000Y-193420D01*
X368440Y-193080D01*
X368950Y-193000D01*
X369460Y-193080D01*
X369900Y-193420D01*
X370280Y-193920D01*
X370530Y-194500D01*
X370660Y-195170D01*
Y-195830D01*
X370530Y-196500D01*
X370280Y-197080D01*
X369900Y-197580D01*
X369460Y-197920D01*
X368950Y-198000D01*
G01X369460Y-196670D02*
X370220Y-198000D01*
G01X374050Y-193000D02*
Y-198000D01*
G01X372590Y-193000D02*
X375510D01*
G01X379150Y-198000D02*
Y-195750D01*
X377880Y-193000D01*
G01X380420D02*
X379150Y-195750D01*
G01X374050Y-208000D02*
Y-203000D01*
X373290Y-204000D01*
G01Y-208000D02*
X374810D01*
G54D19*
G01X-211500Y-211500D02*
X-191500D01*
G01X-211500Y-191500D02*
Y-211500D01*
G01X-191500Y48000D02*
X-211500D01*
G01D02*
Y28000D01*
G01X151500Y-211500D02*
X171500D01*
G01D02*
Y-191500D01*
G01Y28000D02*
Y48000D01*
G01D02*
X151500D01*
M02*
