G04 ================== begin FILE IDENTIFICATION RECORD ==================*
G04 Layout Name:  WCSA_SystemSchem_2-Layer - Copy.brd*
G04 Film Name:    BOTTOM*
G04 File Format:  Gerber RS274X*
G04 File Origin:  Cadence Allegro -unreleased*
G04 Origin Date:  Fri Apr 22 01:01:03 2022*
G04 *
G04 Layer:  VIA CLASS/BOTTOM*
G04 Layer:  PIN/BOTTOM*
G04 Layer:  ETCH/BOTTOM*
G04 *
G04 Offset:    (0.0 0.0)*
G04 Mirror:    No*
G04 Mode:      Positive*
G04 Rotation:  0*
G04 FullContactRelief:  No*
G04 UndefLineWidth:     0.0*
G04 ================== end FILE IDENTIFICATION RECORD ====================*
%FSLAX25Y25*MOIN*%
%IR0*IPPOS*OFA0.00000B0.00000*MIA0B0*SFA1.00000B1.00000*%
%AMMACRO19*
4,1,44,.0192,.0309,
-.0192,.0309,
-.020545,.030793,
-.02185,.030455,
-.023077,.029895,
-.024188,.02913,
-.02515,.028184,
-.025932,.027085,
-.026512,.025867,
-.026871,.024568,
-.027,.023225,
-.027,.0232,
-.027,-.0232,
-.026876,-.024543,
-.026521,-.025844,
-.025945,-.027064,
-.025166,-.028165,
-.024207,-.029114,
-.023099,-.029882,
-.021874,-.030446,
-.020569,-.030789,
-.019225,-.0309,
-.0192,-.0309,
.0192,-.0309,
.020545,-.030793,
.02185,-.030455,
.023077,-.029895,
.024188,-.02913,
.02515,-.028184,
.025932,-.027085,
.026512,-.025867,
.026871,-.024568,
.027,-.023225,
.027,-.0232,
.027,.0232,
.026876,.024543,
.026521,.025844,
.025945,.027064,
.025166,.028165,
.024207,.029114,
.023099,.029882,
.021874,.030446,
.020569,.030789,
.019225,.0309,
.0192,.0309,
0.0*
%
%ADD19MACRO19*%
%ADD22R,.1X.105*%
%ADD10C,.025*%
%ADD20C,.0335*%
%ADD13C,.039*%
%ADD11R,.0602X.0602*%
%ADD18C,.0692*%
%ADD21R,.0335X.0335*%
%ADD12C,.0594*%
%ADD16R,.0681X.0382*%
%ADD14R,.0457X.0716*%
%ADD17R,.0594X.0594*%
%AMMACRO15*
4,1,44,-.0192,-.0309,
.0192,-.0309,
.020545,-.030793,
.02185,-.030455,
.023077,-.029895,
.024188,-.02913,
.02515,-.028184,
.025932,-.027085,
.026512,-.025867,
.026871,-.024568,
.027,-.023225,
.027,-.0232,
.027,.0232,
.026876,.024543,
.026521,.025844,
.025945,.027064,
.025166,.028165,
.024207,.029114,
.023099,.029882,
.021874,.030446,
.020569,.030789,
.019225,.0309,
.0192,.0309,
-.0192,.0309,
-.020545,.030793,
-.02185,.030455,
-.023077,.029895,
-.024188,.02913,
-.02515,.028184,
-.025932,.027085,
-.026512,.025867,
-.026871,.024568,
-.027,.023225,
-.027,.0232,
-.027,-.0232,
-.026876,-.024543,
-.026521,-.025844,
-.025945,-.027064,
-.025166,-.028165,
-.024207,-.029114,
-.023099,-.029882,
-.021874,-.030446,
-.020569,-.030789,
-.019225,-.0309,
-.0192,-.0309,
0.0*
%
%ADD15MACRO15*%
%ADD23C,.05*%
%ADD24C,.035*%
%ADD25C,.0758*%
G75*
%LPD*%
G75*
G36*
G01X-188990Y35500D02*
X148990D01*
Y25490D01*
X159000D01*
Y-188990D01*
X148990D01*
Y-199000D01*
X-188990D01*
Y-188990D01*
X-199000D01*
Y25490D01*
X-188990D01*
Y35500D01*
G37*
%LPC*%
G75*
G36*
G01X113680Y4490D02*
Y10510D01*
G02X114490Y11320I810J0D01*
G01X120510D01*
G02X121320Y10510I0J-810D01*
G01Y4490D01*
G02X120510Y3680I-810J0D01*
G01X114490D01*
G02X113680Y4490I0J810D01*
G37*
G36*
G01X-151320Y-8010D02*
Y-1990D01*
G02X-150510Y-1180I810J0D01*
G01X-144490D01*
G02X-143680Y-1990I0J-810D01*
G01Y-8010D01*
G02X-144490Y-8820I-810J0D01*
G01X-150510D01*
G02X-151320Y-8010I0J810D01*
G37*
G36*
G01X113680Y-18010D02*
Y-11990D01*
G02X114490Y-11180I810J0D01*
G01X120510D01*
G02X121320Y-11990I0J-810D01*
G01Y-18010D01*
G02X120510Y-18820I-810J0D01*
G01X114490D01*
G02X113680Y-18010I0J810D01*
G37*
G36*
G01X1220Y-122970D02*
Y-117030D01*
G02X2030Y-116220I810J0D01*
G01X7970D01*
G02X8780Y-117030I0J-810D01*
G01Y-122970D01*
G02X7970Y-123780I-810J0D01*
G01X2030D01*
G02X1220Y-122970I0J810D01*
G37*
G36*
G01X-119810Y-172940D02*
Y-172680D01*
G02X-118230Y-171100I1584J-4D01*
G01X-114370D01*
G02X-112790Y-172680I-4J-1584D01*
G01Y-177320D01*
G02X-114370Y-178900I-1584J4D01*
G01X-118230D01*
G02X-119810Y-177320I4J1584D01*
G01Y-177060D01*
X-158150D01*
G02X-160000Y-177770I-1850J2055D01*
G02Y-172230I0J2770D01*
G02X-158150Y-172940I0J-2765D01*
G01X-119810D01*
G37*
G36*
G01X-118910Y-152940D02*
Y-151420D01*
G02X-118100Y-150610I810J0D01*
G01X-113520D01*
G02X-112710Y-151420I0J-810D01*
G01Y-158580D01*
G02X-113520Y-159390I-810J0D01*
G01X-118100D01*
G02X-118910Y-158580I0J810D01*
G01Y-157060D01*
X-124150D01*
X-133540Y-166460D01*
G02X-135000Y-167060I-1454J1462D01*
G01X-148980D01*
G02X-150830Y-167770I-1850J2055D01*
G02Y-162230I0J2770D01*
G02X-148980Y-162940I0J-2765D01*
G01X-135850D01*
X-126460Y-153540D01*
G02X-125000Y-152940I1454J-1462D01*
G01X-118910D01*
G37*
G36*
G01X-100270Y-172680D02*
Y-177320D01*
G02X-101850Y-178900I-1584J4D01*
G01X-105710D01*
G02X-107290Y-177320I4J1584D01*
G01Y-172680D01*
G02X-106000Y-171130I1583J-6D01*
G01X-105840Y-171100D01*
Y-161560D01*
G02X-106250Y-160330I1640J1230D01*
G01Y-159390D01*
X-106480D01*
G02X-107290Y-158580I0J810D01*
G01Y-151420D01*
G02X-106830Y-150690I809J0D01*
G03X-106720Y-150050I-176J360D01*
G01X-109710Y-147060D01*
X-148150D01*
G02X-150000Y-147770I-1850J2055D01*
G02Y-142230I0J2770D01*
G02X-148150Y-142940I0J-2765D01*
G01X-108860D01*
G02X-107400Y-143540I6J-2062D01*
G01X-102730Y-148210D01*
G02X-102130Y-149670I-1462J-1454D01*
G01Y-150610D01*
X-101900D01*
G02X-101090Y-151420I0J-810D01*
G01Y-158580D01*
G02X-101660Y-159350I-805J0D01*
G03X-101900Y-159900I122J-381D01*
G02X-101720Y-160750I-1882J-843D01*
G01Y-171100D01*
X-101560Y-171130D01*
G02X-100270Y-172680I-293J-1556D01*
G37*
G36*
G01X53290Y-142890D02*
X50180D01*
G02X48330Y-143600I-1850J2055D01*
G02Y-138060I0J2770D01*
G02X50180Y-138770I0J-2765D01*
G01X53290D01*
X53330Y-138640D01*
G02X54100Y-138110I761J-282D01*
G01X60900D01*
G02X61720Y-138920I10J-810D01*
G01Y-142740D01*
G02X60900Y-143550I-810J0D01*
G01X54100D01*
G02X53330Y-143020I-9J812D01*
G01X53290Y-142890D01*
G37*
G36*
G01X-87060Y-153150D02*
Y-141850D01*
G02X-87770Y-140000I2055J1850D01*
G02X-82230I2770J0D01*
G02X-82940Y-141850I-2765J0D01*
G01Y-153150D01*
G02X-82230Y-155000I-2055J-1850D01*
G02X-87770I-2770J0D01*
G02X-87060Y-153150I2765J0D01*
G37*
G36*
G01X-107480Y-129320D02*
Y-125830D01*
G02X-100860I3310J0D01*
G01Y-129650D01*
G02X-100880Y-130000I-3309J14D01*
G01Y-135000D01*
G02X-101090Y-136170I-3312J-9D01*
G01Y-138580D01*
G02X-101900Y-139390I-810J0D01*
G01X-106480D01*
G02X-107290Y-138580I0J810D01*
G01Y-136170D01*
G02X-107500Y-135000I3102J1161D01*
G01Y-129670D01*
G02X-107480Y-129320I3309J-14D01*
G37*
G36*
G01X84940Y-135000D02*
G02X85690Y-133190I2559J0D01*
G01X97440Y-121440D01*
G02X100000Y-119730I2560J-1061D01*
G02X102770Y-122500I0J-2770D01*
G02X101060Y-125060I-2771J0D01*
G01X90060Y-136060D01*
Y-162500D01*
G02X89310Y-164310I-2559J0D01*
G01X86730Y-166890D01*
Y-169770D01*
G02X86940Y-170830I-2570J-1060D01*
G02X81400I-2770J0D01*
G02X81610Y-169770I2780J0D01*
G01Y-165830D01*
G02X82360Y-164020I2559J0D01*
G01X84940Y-161440D01*
Y-135000D01*
G37*
G36*
G01X-117270Y-124350D02*
X-111460Y-118540D01*
G02X-110000Y-117940I1454J-1462D01*
G01X-100000D01*
G02X-98540Y-118540I6J-2062D01*
G01X-93540Y-123540D01*
G02X-92940Y-125000I-1462J-1454D01*
G01Y-154150D01*
X-79070Y-168010D01*
X-79000Y-168020D01*
G02X-76450Y-170780I-219J-2760D01*
G02X-79220Y-173550I-2770J0D01*
G02X-81980Y-171000I0J2769D01*
G01X-81990Y-170930D01*
X-96460Y-156460D01*
G02X-97060Y-155000I1462J1454D01*
G01Y-125850D01*
X-100850Y-122060D01*
X-109150D01*
X-113750Y-126660D01*
Y-130610D01*
X-113520D01*
G02X-112710Y-131420I0J-810D01*
G01Y-138580D01*
G02X-113520Y-139390I-810J0D01*
G01X-118100D01*
G02X-118910Y-138580I0J810D01*
G01Y-131420D01*
G02X-118100Y-130610I810J0D01*
G01X-117870D01*
Y-125810D01*
G02X-117270Y-124350I2062J6D01*
G37*
G36*
G01X75270Y-107940D02*
Y-107680D01*
G02X76850Y-106100I1584J-4D01*
G01X80710D01*
G02X82290Y-107680I-4J-1584D01*
G01Y-112320D01*
G02X80710Y-113900I-1584J4D01*
G01X76850D01*
G02X75270Y-112320I4J1584D01*
G01Y-112060D01*
X68350D01*
X65270Y-115150D01*
X65260Y-115220D01*
G02X62500Y-117770I-2760J219D01*
G02X59730Y-115000I0J2770D01*
G02X62280Y-112240I2769J0D01*
G01X62350Y-112230D01*
X66040Y-108540D01*
G02X67500Y-107940I1454J-1462D01*
G01X75270D01*
G37*
G36*
G01X87790Y-112320D02*
Y-107680D01*
G02X89370Y-106100I1584J-4D01*
G01X93230D01*
G02X94810Y-107680I-4J-1584D01*
G01Y-107940D01*
X97500D01*
G02X98960Y-108540I6J-2062D01*
G01X107220Y-116810D01*
X113240Y-110790D01*
G02X114700Y-110190I1454J-1462D01*
G01X127190D01*
Y-107000D01*
G02X128000Y-106190I810J0D01*
G01X138000D01*
G02X138810Y-107000I0J-810D01*
G01Y-117680D01*
X151320D01*
Y-147320D01*
X138810D01*
Y-158000D01*
G02X138000Y-158810I-810J0D01*
G01X135060D01*
Y-174050D01*
G02X134460Y-175510I-2062J-6D01*
G01X133730Y-176230D01*
Y-176480D01*
X133780Y-176530D01*
G02X134440Y-178330I-2112J-1795D01*
G02X131670Y-181100I-2770J0D01*
G02X129820Y-180390I0J2765D01*
G01X122990D01*
G02X122230Y-180240I11J2058D01*
G01X122190Y-180230D01*
X117500D01*
G02Y-176110I0J2060D01*
G01X122830D01*
G02X123590Y-176260I-11J-2058D01*
G01X123630Y-176270D01*
X129610D01*
Y-175380D01*
G02X130210Y-173920I2062J6D01*
G01X130940Y-173200D01*
Y-158810D01*
X128000D01*
G02X127190Y-158000I0J810D01*
G01Y-147320D01*
X114680D01*
Y-117680D01*
X127190D01*
Y-114310D01*
X115550D01*
X109280Y-120570D01*
Y-133430D01*
G02Y-137130I-2055J-1850D01*
G01Y-151370D01*
X118960Y-161040D01*
G02X119560Y-162500I-1462J-1454D01*
G01Y-166830D01*
G02X115440I-2060J0D01*
G01Y-163350D01*
X105760Y-153680D01*
G02X105160Y-152220I1462J1454D01*
G01Y-137130D01*
G02Y-133430I2055J1850D01*
G01Y-120570D01*
X96650Y-112060D01*
X94810D01*
Y-112320D01*
G02X93230Y-113900I-1584J4D01*
G01X89370D01*
G02X87790Y-112320I4J1584D01*
G37*
G36*
G01X-113960Y-103540D02*
G02X-112500Y-102940I1454J-1462D01*
G01X-76850D01*
G02X-75000Y-102230I1850J-2055D01*
G02Y-107770I0J-2770D01*
G02X-76850Y-107060I0J2765D01*
G01X-111650D01*
X-122940Y-118350D01*
Y-133150D01*
G02X-122230Y-135000I-2055J-1850D01*
G02X-125000Y-137770I-2770J0D01*
G02X-126850Y-137060I0J2765D01*
G01X-154150D01*
X-157940Y-140850D01*
Y-148150D01*
G02X-157230Y-150000I-2055J-1850D01*
G02X-162770I-2770J0D01*
G02X-162060Y-148150I2765J0D01*
G01Y-140000D01*
G02X-161460Y-138540I2062J6D01*
G01X-156460Y-133540D01*
G02X-155000Y-132940I1454J-1462D01*
G01X-127060D01*
Y-117500D01*
G02X-126460Y-116040I2062J6D01*
G01X-113960Y-103540D01*
G37*
G36*
G01X-51720Y-42740D02*
Y-38920D01*
G02X-50900Y-38110I810J0D01*
G01X-44100D01*
G02X-43280Y-38920I10J-810D01*
G01Y-42740D01*
G02X-44100Y-43550I-810J0D01*
G01X-45440D01*
Y-56650D01*
X-34150Y-67940D01*
X-28180D01*
G02X-25000Y-66210I3180J-2058D01*
G02Y-73790I0J-3790D01*
G02X-28180Y-72060I0J3788D01*
G01X-35000D01*
G02X-36460Y-71460I-6J2062D01*
G01X-48960Y-58960D01*
G02X-49560Y-57500I1462J1454D01*
G01Y-43550D01*
X-50900D01*
G02X-51720Y-42740I-10J810D01*
G37*
G36*
G01X16040Y-57510D02*
X35020Y-38540D01*
X34990Y-38430D01*
G02X34850Y-37340I4141J1086D01*
G02X39130Y-41620I4280J0D01*
G02X38040Y-41480I-4J4281D01*
G01X37930Y-41450D01*
X27790Y-51600D01*
G03X28000Y-52270I281J-280D01*
G02X30270Y-55000I-507J-2730D01*
G02X29560Y-56850I-2765J0D01*
G01Y-66650D01*
X35850Y-72940D01*
X64150D01*
X66200Y-70880D01*
G02X67660Y-70280I1454J-1462D01*
G01X76100D01*
G02X76190Y-70220I1426J-2042D01*
G03Y-69540I-206J340D01*
G02X76100Y-69480I1336J2102D01*
G01X67420D01*
G02X65960Y-68880I-6J2062D01*
G01X64150Y-67060D01*
X44350D01*
G02X42500Y-67770I-1850J2055D01*
G02Y-62230I0J2770D01*
G02X44350Y-62940I0J-2765D01*
G01X65000D01*
G02X66460Y-63540I6J-2062D01*
G01X68270Y-65360D01*
X76100D01*
G02X77500Y-64930I1400J-2064D01*
G02X79990Y-67420I0J-2490D01*
G02X78810Y-69540I-2494J0D01*
G03Y-70220I206J-340D01*
G02Y-74460I-1314J-2120D01*
G03Y-75140I206J-340D01*
G02X78900Y-75200I-1336J-2102D01*
G01X96890D01*
X102940Y-69150D01*
Y-61850D01*
G02X102230Y-60000I2055J1850D01*
G02X107770I2770J0D01*
G02X107060Y-61850I-2765J0D01*
G01Y-70000D01*
G02X106460Y-71460I-2062J-6D01*
G01X99200Y-78720D01*
G02X97740Y-79320I-1454J1462D01*
G01X78900D01*
G02X77500Y-79750I-1400J2064D01*
G02X75010Y-77260I0J2490D01*
G02X76190Y-75140I2494J0D01*
G03Y-74460I-206J340D01*
G02X76100Y-74400I1336J2102D01*
G01X68510D01*
X66460Y-76460D01*
G02X65000Y-77060I-1454J1462D01*
G01X35000D01*
G02X33540Y-76460I-6J2062D01*
G01X26040Y-68960D01*
G02X25440Y-67500I1462J1454D01*
G01Y-56850D01*
G02X24770Y-55500I2054J1861D01*
G03X24100Y-55290I-390J-71D01*
G01X19560Y-59820D01*
Y-73650D01*
G02X20270Y-75500I-2055J-1850D01*
G02X14730I-2770J0D01*
G02X15440Y-73650I2765J0D01*
G01Y-58970D01*
G02X16040Y-57510I2062J6D01*
G37*
G36*
G01X-80650Y-19560D02*
G02X-82500Y-20270I-1850J2055D01*
G02Y-14730I0J2770D01*
G02X-80650Y-15440I0J-2765D01*
G01X-64350D01*
G02X-62500Y-14730I1850J-2055D01*
G02Y-20270I0J-2770D01*
G02X-64350Y-19560I0J2765D01*
G01X-80650D01*
G37*
G36*
G01X2940Y-26820D02*
Y-19350D01*
G02X2230Y-17500I2055J1850D01*
G02X7770I2770J0D01*
G02X7060Y-19350I-2765J0D01*
G01Y-26820D01*
G02X8790Y-30000I-2058J-3180D01*
G02X1210I-3790J0D01*
G02X2940Y-26820I3788J0D01*
G37*
G36*
G01X-141460Y-23960D02*
X-146710Y-18710D01*
X-146810Y-18730D01*
G02X-147500Y-18790I-672J3732D01*
G02X-143710Y-15000I0J3790D01*
G02X-143770Y-15690I-3792J-18D01*
G01X-143790Y-15790D01*
X-139150Y-20440D01*
X-125050D01*
G02X-123200Y-19730I1850J-2055D01*
G02Y-25270I0J-2770D01*
G02X-125050Y-24560I0J2765D01*
G01X-140000D01*
G02X-141460Y-23960I-6J2062D01*
G37*
G36*
G01X12940Y-39150D02*
Y-14350D01*
G02X12230Y-12500I2055J1850D01*
G02X17770I2770J0D01*
G02X17060Y-14350I-2765J0D01*
G01Y-40000D01*
G02X16460Y-41460I-2062J-6D01*
G01X8710Y-49210D01*
X8730Y-49310D01*
G02X8790Y-50000I-3732J-672D01*
G02X5000Y-46210I-3790J0D01*
G02X5690Y-46270I18J-3792D01*
G01X5790Y-46290D01*
X12940Y-39150D01*
G37*
G36*
G01X-5830Y-3640D02*
X-5790Y-3770D01*
X-180D01*
G02X1670Y-3060I1850J-2055D01*
G02Y-8600I0J-2770D01*
G02X-180Y-7890I0J2765D01*
G01X-5790D01*
X-5830Y-8020D01*
G02X-6600Y-8550I-761J282D01*
G01X-13400D01*
G02X-14170Y-8020I-9J812D01*
G01X-14210Y-7890D01*
X-29980D01*
X-45440Y-23350D01*
Y-26450D01*
X-44100D01*
G02X-43280Y-27260I10J-810D01*
G01Y-31080D01*
G02X-44100Y-31890I-810J0D01*
G01X-50900D01*
G02X-51720Y-31080I-10J810D01*
G01Y-27260D01*
G02X-50900Y-26450I810J0D01*
G01X-49560D01*
Y-22500D01*
G02X-48960Y-21040I2062J6D01*
G01X-32290Y-4370D01*
G02X-30830Y-3770I1454J-1462D01*
G01X-14210D01*
X-14170Y-3640D01*
G02X-13400Y-3110I761J-282D01*
G01X-6600D01*
G02X-5830Y-3640I9J-812D01*
G37*
G36*
G01X-80650Y-4560D02*
G02X-82500Y-5270I-1850J2055D01*
G02Y270I0J2770D01*
G02X-80650Y-440I0J-2765D01*
G01X-71850D01*
G02X-70000Y270I1850J-2055D01*
G02Y-5270I0J-2770D01*
G02X-71850Y-4560I0J2765D01*
G01X-80650D01*
G37*
G36*
G01X-139060Y-11150D02*
Y-2350D01*
G02X-139770Y-500I2055J1850D01*
G02X-134230I2770J0D01*
G02X-134940Y-2350I-2765J0D01*
G01Y-11150D01*
G02X-134230Y-13000I-2055J-1850D01*
G02X-139770I-2770J0D01*
G02X-139060Y-11150I2765J0D01*
G37*
G36*
G01X-68510Y-8440D02*
X-44120Y15960D01*
G02X-42660Y16560I1454J-1462D01*
G01X28000D01*
G02X29460Y15960I6J-2062D01*
G01X40460Y4960D01*
G02X41060Y3500I-1462J-1454D01*
G01Y-12040D01*
X41070Y-12070D01*
G02X41190Y-12760I-1940J-693D01*
G01Y-13910D01*
G02X43410Y-17660I-2057J-3750D01*
G02X34850I-4280J0D01*
G02X36970Y-13960I4289J0D01*
G01X37070Y-13910D01*
Y-13350D01*
X37060Y-13320D01*
G02X36940Y-12630I1940J693D01*
G01Y2650D01*
X27150Y12440D01*
X-41810D01*
X-66200Y-11960D01*
G02X-67660Y-12560I-1454J1462D01*
G01X-80650D01*
G02X-82500Y-13270I-1850J2055D01*
G02Y-7730I0J2770D01*
G02X-80650Y-8440I0J-2765D01*
G01X-68510D01*
G37*
G36*
G01X108190Y19310D02*
G02X110000Y20060I1810J-1809D01*
G01X114710D01*
G02X120290I2790J-2549D01*
G01X122500D01*
G02X124310Y19310I0J-2559D01*
G01X129310Y14310D01*
G02X130060Y12500I-1809J-1810D01*
G01Y-20000D01*
G02X129310Y-21810I-2559J0D01*
G01X124310Y-26810D01*
G02X122500Y-27560I-1810J1809D01*
G01X120290D01*
G02X117500Y-28790I-2790J2549D01*
G02Y-21210I0J3790D01*
G02X120290Y-22440I0J-3779D01*
G01X121440D01*
X124940Y-18940D01*
Y11440D01*
X121440Y14940D01*
X120290D01*
G02X114710I-2790J2549D01*
G01X111060D01*
X105060Y8940D01*
Y-2500D01*
G02X104310Y-4310I-2559J0D01*
G01X100120Y-8500D01*
G02X98310Y-9250I-1810J1809D01*
G01X89370D01*
G02X88310Y-9460I-1060J2570D01*
G02Y-3920I0J2770D01*
G02X89370Y-4130I0J-2780D01*
G01X97250D01*
X99940Y-1440D01*
Y10000D01*
G02X100690Y11810I2559J0D01*
G01X108190Y19310D01*
G37*
G54D25*
X5000Y-40000D03*
Y-60000D03*
Y-70000D03*
Y-80000D03*
Y-90000D03*
Y-100000D03*
Y-110000D03*
X-25000D03*
Y-100000D03*
Y-90000D03*
Y-80000D03*
Y-60000D03*
Y-50000D03*
Y-40000D03*
Y-30000D03*
X117500Y-35000D03*
X-175000Y-155000D03*
Y-100000D03*
Y-40000D03*
X117500Y-77500D03*
Y-67500D03*
%LPD*%
G75*
G54D10*
G01X-116300Y-175000D02*
X-160000D01*
G01X-125000Y-135000D02*
X-155000D01*
X-160000Y-140000D01*
Y-150000D01*
G01X-150830Y-165000D02*
X-135000D01*
X-125000Y-155000D01*
X-115810D01*
G01X-150000Y-145000D02*
X-108860D01*
X-104190Y-149670D01*
Y-155000D01*
G01X-137000Y-13000D02*
Y-500D01*
G01X-123200Y-22500D02*
X-140000D01*
X-147500Y-15000D01*
G01X-103780Y-175000D02*
Y-160750D01*
X-104190Y-160330D01*
Y-155000D01*
G01X-125000Y-135000D02*
Y-117500D01*
X-112500Y-105000D01*
X-75000D01*
G01X-79220Y-170780D02*
X-95000Y-155000D01*
Y-125000D01*
X-100000Y-120000D01*
X-110000D01*
X-115810Y-125810D01*
Y-135000D01*
G01X-85000Y-155000D02*
Y-140000D01*
G01X-82500Y-17500D02*
X-62500D01*
G01X39130Y-17660D02*
Y-12760D01*
X39000Y-12630D01*
Y3500D01*
X28000Y14500D01*
X-42660D01*
X-67660Y-10500D01*
X-82500D01*
G01Y-2500D02*
X-70000D01*
G01X-25000Y-70000D02*
X-35000D01*
X-47500Y-57500D01*
Y-40830D01*
G01Y-29170D02*
Y-22500D01*
X-30830Y-5830D01*
X-10000D01*
G01D02*
X1670D01*
G01X17500Y-75500D02*
Y-58970D01*
X39130Y-37340D01*
G01X15000Y-12500D02*
Y-40000D01*
X5000Y-50000D01*
G01Y-17500D02*
Y-30000D01*
G01X48330Y-140830D02*
X57500D01*
G01X42500Y-65000D02*
X65000D01*
X67420Y-67420D01*
X77500D01*
G01X27500Y-55000D02*
Y-67500D01*
X35000Y-75000D01*
X65000D01*
X67660Y-72340D01*
X77500D01*
G01X78780Y-110000D02*
X67500D01*
X62500Y-115000D01*
G01X105000Y-60000D02*
Y-70000D01*
X97740Y-77260D01*
X77500D01*
G01X117500Y-166830D02*
Y-162500D01*
X107220Y-152220D01*
Y-135280D01*
G01D02*
Y-119720D01*
G01D02*
X97500Y-110000D01*
X91300D01*
G01X133000Y-112250D02*
X114700D01*
X107220Y-119720D01*
G01X117500Y-178170D02*
X122830D01*
X122990Y-178330D01*
X131670D01*
G01X133000Y-152750D02*
Y-174050D01*
X131670Y-175380D01*
Y-178330D01*
X-199000Y-199000D03*
Y35500D03*
X159000Y-199000D03*
Y35500D03*
G54D11*
X-175000Y-165000D03*
Y-110000D03*
Y-50000D03*
X-147500Y-5000D03*
X117500Y-57500D03*
Y-15000D03*
Y7500D03*
G54D20*
X77500Y-77260D03*
Y-72340D03*
Y-67420D03*
G54D12*
X-175000Y-155000D03*
Y-100000D03*
Y-40000D03*
X-147500Y-15000D03*
X-25000Y-120000D03*
Y-110000D03*
Y-100000D03*
Y-90000D03*
Y-80000D03*
Y-70000D03*
Y-60000D03*
Y-50000D03*
Y-40000D03*
Y-30000D03*
X5000Y-100000D03*
Y-110000D03*
Y-70000D03*
Y-80000D03*
Y-90000D03*
Y-40000D03*
Y-50000D03*
Y-60000D03*
Y-30000D03*
X117500Y-67500D03*
Y-77500D03*
Y-35000D03*
Y-25000D03*
Y17500D03*
G54D21*
X77500Y-62500D03*
G54D13*
X-160000Y-175000D03*
Y-150000D03*
X-150830Y-165000D03*
X-150000Y-145000D03*
X-137000Y-13000D03*
X-130000Y-12500D03*
X-137000Y-500D03*
X-130000Y0D03*
X-104170Y-125830D03*
X-125000Y-135000D03*
X-120000Y-70000D03*
X-123200Y-22500D03*
X-79220Y-170780D03*
X-85000Y-155000D03*
Y-140000D03*
X-75000Y-105000D03*
X-82500Y-17500D03*
Y-10500D03*
X-97500Y-15000D03*
X-82500Y-2500D03*
X-70000D03*
X-55500Y-159500D03*
X-62500Y-17500D03*
X17500Y-75500D03*
X1670Y-5830D03*
X5000Y-17500D03*
X15000Y-12500D03*
X20500Y-6000D03*
X45000Y-161690D03*
X48330Y-140830D03*
X32500Y-121500D03*
X42500Y-65000D03*
X49000Y-83500D03*
X27500Y-55000D03*
X72780Y-135280D03*
X62500Y-115000D03*
X84170Y-170830D03*
X107220Y-135280D03*
X100000Y-122500D03*
X90810Y-118310D03*
X105000Y-60000D03*
X88310Y-6690D03*
X131670Y-178330D03*
G54D22*
X133000Y-152750D03*
Y-112250D03*
G54D23*
G01X-130000Y-12500D02*
Y0D01*
G01X-104190Y-135000D02*
Y-129670D01*
X-104170Y-129650D01*
Y-125830D01*
G54D14*
X-115810Y-155000D03*
X-104190D03*
X-115810Y-135000D03*
X-104190D03*
G54D24*
G01X100000Y-122500D02*
X87500Y-135000D01*
Y-162500D01*
X84170Y-165830D01*
Y-170830D01*
G01X117500Y17500D02*
X110000D01*
X102500Y10000D01*
Y-2500D01*
X98310Y-6690D01*
X88310D01*
G01X117500Y-25000D02*
X122500D01*
X127500Y-20000D01*
Y12500D01*
X122500Y17500D01*
X117500D01*
G54D15*
X-116300Y-175000D03*
X-103780D03*
G54D16*
X-47500Y-40830D03*
Y-29170D03*
X-10000Y-5830D03*
Y5830D03*
X57500Y-140830D03*
Y-129170D03*
G54D17*
X5000Y-120000D03*
G54D18*
X39130Y-37340D03*
Y-17660D03*
X78500Y-27500D03*
G54D19*
X78780Y-110000D03*
X91300D03*
M02*
