M48
INCH,LZ
T01C.0492
T02C.0394
T03C.0197
T04C.125
;LEADER: 12 
;HEADER: 
;CODE  : ASCII 
;FILE  : NCdrill-1-2.drl for  ... layers TOP and BOTTOM
;DESIGN: WCSA_SystemSchem_2-Layer - Copy.brd
;T01 Holesize 1. = 49.200000 Tolerance = +0.000000/-0.000000 PLATED MILS Quantity = 3
;T02 Holesize 2. = 39.400000 Tolerance = +0.000000/-0.000000 PLATED MILS Quantity = 36
;T03 Holesize 3. = 19.700000 Tolerance = +0.000000/-0.000000 PLATED MILS Quantity = 47
;T04 Holesize 4. = 125.000000 Tolerance = +0.000000/-0.000000 NON_PLATED MILS Quantity = 4
%
G90
T01
X00785Y-00275
X003913Y-001766
X003913Y-003734
T02
X-0175Y-011
X-0175Y-01
X-0175Y-0165
X-0175Y-0155
X-0175Y-005
X-0175Y-004
X-01475Y-0005
X-01475Y-0015
X0005Y-012
R09Y001
X-0025Y-003
R09Y-001
X01175Y00075
X01175Y00175
X01175Y-00575
R02Y-001
X01175Y-0015
R02Y-001
T03
X-0085Y-014
X-015083Y-0165
X-0085Y-0155
X-007922Y-017078
X00205Y-0006
X-00975Y-0015
X-013Y-00125
X009081Y-011831
X007278Y-013528
X0045Y-016169
X-013Y0
X0049Y-00835
X00325Y-01215
X-012Y-007
X-00555Y-01595
X004833Y-014083
X013167Y-017833
X010722Y-013528
X00625Y-0115
X-01232Y-00225
X-00825Y-00105
X00175Y-00755
X-007Y-00025
X-00825Y-00025
X0015Y-00125
X0005Y-00175
X-00825Y-00175
X-00625Y-00175
X-0125Y-0135
X-016Y-015
X-0075Y-0105
X-016Y-0175
X0105Y-006
X008831Y-000669
X00275Y-0055
X00425Y-0065
X-0137Y-00005
X-0137Y-0013
X008417Y-017083
X01Y-01225
X-010417Y-012583
X000167Y-000583
X-015Y-0145
X00775Y-00625
R03Y-000492
T04
X-0199Y-0199
X-0199Y00355
X0159Y-0199
X0159Y00355
M30
