G04 ================== begin FILE IDENTIFICATION RECORD ==================*
G04 Layout Name:  WCSA_SystemSchem_4-Layer.brd*
G04 Film Name:    SST*
G04 File Format:  Gerber RS274X*
G04 File Origin:  Cadence Allegro 17.4-S013*
G04 Origin Date:  Thu May  5 23:29:30 2022*
G04 *
G04 Layer:  REF DES/SILKSCREEN_TOP*
G04 Layer:  MANUFACTURING/AUTOSILK_TOP*
G04 *
G04 Offset:    (0.00 0.00)*
G04 Mirror:    No*
G04 Mode:      Positive*
G04 Rotation:  0*
G04 FullContactRelief:  No*
G04 UndefLineWidth:     5.00*
G04 ================== end FILE IDENTIFICATION RECORD ====================*
%FSLAX25Y25*MOIN*%
%IR0*IPPOS*OFA0.00000B0.00000*MIA0B0*SFA1.00000B1.00000*%
%ADD10C,.005*%
%ADD11C,.006*%
%ADD12C,.00787*%
G75*
%LPD*%
G75*
G54D10*
G01X-83355Y-62687D02*
X-83048Y-62945D01*
X-82703Y-63100D01*
X-82397D01*
X-82090Y-62945D01*
X-81860Y-62687D01*
X-81745Y-62325D01*
X-81822Y-61963D01*
X-82013Y-61653D01*
X-82358Y-61447D01*
X-82818Y-61343D01*
X-83087Y-61137D01*
X-83202Y-60775D01*
X-83125Y-60413D01*
X-82933Y-60155D01*
X-82665Y-60000D01*
X-82397D01*
X-82128Y-60103D01*
X-81898Y-60362D01*
G01X-80600Y-60000D02*
X-80063Y-63100D01*
X-79450Y-60000D01*
X-78837Y-63100D01*
X-78300Y-60000D01*
G01X-76350Y-63100D02*
Y-60000D01*
X-76810Y-60620D01*
G01Y-63100D02*
X-75890D01*
G01X-83355Y-62687D02*
X-83048Y-62945D01*
X-82703Y-63100D01*
X-82397D01*
X-82090Y-62945D01*
X-81860Y-62687D01*
X-81745Y-62325D01*
X-81822Y-61963D01*
X-82013Y-61653D01*
X-82358Y-61447D01*
X-82818Y-61343D01*
X-83087Y-61137D01*
X-83202Y-60775D01*
X-83125Y-60413D01*
X-82933Y-60155D01*
X-82665Y-60000D01*
X-82397D01*
X-82128Y-60103D01*
X-81898Y-60362D01*
G01X-80600Y-60000D02*
X-80063Y-63100D01*
X-79450Y-60000D01*
X-78837Y-63100D01*
X-78300Y-60000D01*
G01X-76350Y-63100D02*
Y-60000D01*
X-76810Y-60620D01*
G01Y-63100D02*
X-75890D01*
G01X-82417Y-29980D02*
X-82225Y-30290D01*
X-81995Y-30497D01*
X-81727Y-30600D01*
X-81420Y-30497D01*
X-81190Y-30290D01*
X-80960Y-29980D01*
X-80883Y-29567D01*
Y-27500D01*
G01X-79278Y-28017D02*
X-79048Y-27707D01*
X-78780Y-27552D01*
X-78473Y-27500D01*
X-78090Y-27603D01*
X-77822Y-27862D01*
X-77745Y-28172D01*
X-77783Y-28482D01*
X-77937Y-28740D01*
X-78703Y-29257D01*
X-79048Y-29618D01*
X-79278Y-30135D01*
X-79355Y-30600D01*
X-77745D01*
G01X-82417Y-29980D02*
X-82225Y-30290D01*
X-81995Y-30497D01*
X-81727Y-30600D01*
X-81420Y-30497D01*
X-81190Y-30290D01*
X-80960Y-29980D01*
X-80883Y-29567D01*
Y-27500D01*
G01X-79278Y-28017D02*
X-79048Y-27707D01*
X-78780Y-27552D01*
X-78473Y-27500D01*
X-78090Y-27603D01*
X-77822Y-27862D01*
X-77745Y-28172D01*
X-77783Y-28482D01*
X-77937Y-28740D01*
X-78703Y-29257D01*
X-79048Y-29618D01*
X-79278Y-30135D01*
X-79355Y-30600D01*
X-77745D01*
G01X-82017Y2720D02*
X-81825Y2410D01*
X-81595Y2203D01*
X-81327Y2100D01*
X-81020Y2203D01*
X-80790Y2410D01*
X-80560Y2720D01*
X-80483Y3133D01*
Y5200D01*
G01X-78150Y2100D02*
Y5200D01*
X-78610Y4580D01*
G01Y2100D02*
X-77690D01*
G01X-82017Y2720D02*
X-81825Y2410D01*
X-81595Y2203D01*
X-81327Y2100D01*
X-81020Y2203D01*
X-80790Y2410D01*
X-80560Y2720D01*
X-80483Y3133D01*
Y5200D01*
G01X-78150Y2100D02*
Y5200D01*
X-78610Y4580D01*
G01Y2100D02*
X-77690D01*
G01X-82217Y36020D02*
X-82025Y35710D01*
X-81795Y35503D01*
X-81527Y35400D01*
X-81220Y35503D01*
X-80990Y35710D01*
X-80760Y36020D01*
X-80683Y36433D01*
Y38500D01*
G01X-78427Y35400D02*
X-78350Y36072D01*
X-78235Y36640D01*
X-78082Y37157D01*
X-77890Y37725D01*
X-77583Y38500D01*
X-79117D01*
G01X-82217Y36020D02*
X-82025Y35710D01*
X-81795Y35503D01*
X-81527Y35400D01*
X-81220Y35503D01*
X-80990Y35710D01*
X-80760Y36020D01*
X-80683Y36433D01*
Y38500D01*
G01X-78427Y35400D02*
X-78350Y36072D01*
X-78235Y36640D01*
X-78082Y37157D01*
X-77890Y37725D01*
X-77583Y38500D01*
X-79117D01*
G01X-64217Y-63400D02*
Y-60300D01*
X-63258D01*
X-62952Y-60455D01*
X-62760Y-60662D01*
X-62683Y-61075D01*
X-62760Y-61488D01*
X-62990Y-61747D01*
X-63258Y-61902D01*
X-64217D01*
G01X-63258D02*
X-62683Y-63400D01*
G01X-60350D02*
Y-60300D01*
X-60810Y-60920D01*
G01Y-63400D02*
X-59890D01*
G01X-54258Y-40793D02*
X-54103Y-40563D01*
X-54000Y-40295D01*
Y-39988D01*
X-54155Y-39643D01*
X-54413Y-39375D01*
X-54723Y-39183D01*
X-55240Y-39030D01*
X-55705Y-38992D01*
X-56170Y-39068D01*
X-56480Y-39183D01*
X-56790Y-39413D01*
X-56997Y-39682D01*
X-57100Y-39950D01*
Y-40218D01*
X-56997Y-40487D01*
X-56842Y-40717D01*
X-56635Y-40908D01*
G01X-56480Y-42207D02*
X-56842Y-42437D01*
X-57048Y-42743D01*
X-57100Y-43088D01*
X-57048Y-43395D01*
X-56790Y-43702D01*
X-56480Y-43893D01*
X-56170Y-43932D01*
X-55808Y-43855D01*
X-55550Y-43587D01*
X-55447Y-43318D01*
Y-42973D01*
G01Y-43318D02*
X-55292Y-43548D01*
X-55033Y-43740D01*
X-54723Y-43817D01*
X-54413Y-43740D01*
X-54155Y-43548D01*
X-54000Y-43203D01*
X-54052Y-42858D01*
X-54258Y-42513D01*
G01X-63207Y-20058D02*
X-63437Y-19903D01*
X-63705Y-19800D01*
X-64012D01*
X-64357Y-19955D01*
X-64625Y-20213D01*
X-64817Y-20523D01*
X-64970Y-21040D01*
X-65008Y-21505D01*
X-64932Y-21970D01*
X-64817Y-22280D01*
X-64587Y-22590D01*
X-64318Y-22797D01*
X-64050Y-22900D01*
X-63782D01*
X-63513Y-22797D01*
X-63283Y-22642D01*
X-63092Y-22435D01*
G01X-61678Y-20317D02*
X-61448Y-20007D01*
X-61180Y-19852D01*
X-60873Y-19800D01*
X-60490Y-19903D01*
X-60222Y-20162D01*
X-60145Y-20472D01*
X-60183Y-20782D01*
X-60337Y-21040D01*
X-61103Y-21557D01*
X-61448Y-21918D01*
X-61678Y-22435D01*
X-61755Y-22900D01*
X-60145D01*
G01X-58467Y19000D02*
Y22100D01*
X-57508D01*
X-57202Y21945D01*
X-57010Y21738D01*
X-56933Y21325D01*
X-57010Y20912D01*
X-57240Y20653D01*
X-57508Y20498D01*
X-58467D01*
G01X-57508D02*
X-56933Y19000D01*
G01X-54600D02*
Y22100D01*
X-55060Y21480D01*
G01Y19000D02*
X-54140D01*
G01X-52228Y20292D02*
X-51960Y20653D01*
X-51730Y20860D01*
X-51423Y20963D01*
X-51155Y20860D01*
X-50963Y20653D01*
X-50810Y20343D01*
X-50772Y19982D01*
X-50810Y19672D01*
X-50963Y19362D01*
X-51193Y19103D01*
X-51462Y19000D01*
X-51768Y19103D01*
X-52037Y19413D01*
X-52190Y19878D01*
X-52228Y20395D01*
X-52152Y21067D01*
X-52037Y21428D01*
X-51845Y21790D01*
X-51577Y22048D01*
X-51308Y22100D01*
X-51040Y21997D01*
X-50848Y21738D01*
G01X-71567Y56400D02*
Y59500D01*
X-70608D01*
X-70302Y59345D01*
X-70110Y59138D01*
X-70033Y58725D01*
X-70110Y58312D01*
X-70340Y58053D01*
X-70608Y57898D01*
X-71567D01*
G01X-70608D02*
X-70033Y56400D01*
G01X-67700D02*
Y59500D01*
X-68160Y58880D01*
G01Y56400D02*
X-67240D01*
G01X-65443Y57020D02*
X-65213Y56658D01*
X-64907Y56452D01*
X-64562Y56400D01*
X-64255Y56452D01*
X-63948Y56710D01*
X-63757Y57020D01*
X-63718Y57330D01*
X-63795Y57692D01*
X-64063Y57950D01*
X-64332Y58053D01*
X-64677D01*
G01X-64332D02*
X-64102Y58208D01*
X-63910Y58467D01*
X-63833Y58777D01*
X-63910Y59087D01*
X-64102Y59345D01*
X-64447Y59500D01*
X-64792Y59448D01*
X-65137Y59242D01*
G01X-71567Y56400D02*
Y59500D01*
X-70608D01*
X-70302Y59345D01*
X-70110Y59138D01*
X-70033Y58725D01*
X-70110Y58312D01*
X-70340Y58053D01*
X-70608Y57898D01*
X-71567D01*
G01X-70608D02*
X-70033Y56400D01*
G01X-67700D02*
Y59500D01*
X-68160Y58880D01*
G01Y56400D02*
X-67240D01*
G01X-65443Y57020D02*
X-65213Y56658D01*
X-64907Y56452D01*
X-64562Y56400D01*
X-64255Y56452D01*
X-63948Y56710D01*
X-63757Y57020D01*
X-63718Y57330D01*
X-63795Y57692D01*
X-64063Y57950D01*
X-64332Y58053D01*
X-64677D01*
G01X-64332D02*
X-64102Y58208D01*
X-63910Y58467D01*
X-63833Y58777D01*
X-63910Y59087D01*
X-64102Y59345D01*
X-64447Y59500D01*
X-64792Y59448D01*
X-65137Y59242D01*
G01X-34117Y-88700D02*
Y-85600D01*
X-33158D01*
X-32852Y-85755D01*
X-32660Y-85962D01*
X-32583Y-86375D01*
X-32660Y-86788D01*
X-32890Y-87047D01*
X-33158Y-87202D01*
X-34117D01*
G01X-33158D02*
X-32583Y-88700D01*
G01X-30978Y-86117D02*
X-30748Y-85807D01*
X-30480Y-85652D01*
X-30173Y-85600D01*
X-29790Y-85703D01*
X-29522Y-85962D01*
X-29445Y-86272D01*
X-29483Y-86582D01*
X-29637Y-86840D01*
X-30403Y-87357D01*
X-30748Y-87718D01*
X-30978Y-88235D01*
X-31055Y-88700D01*
X-29445D01*
G01X-42158Y-58493D02*
X-42003Y-58263D01*
X-41900Y-57995D01*
Y-57688D01*
X-42055Y-57343D01*
X-42313Y-57075D01*
X-42623Y-56883D01*
X-43140Y-56730D01*
X-43605Y-56692D01*
X-44070Y-56768D01*
X-44380Y-56883D01*
X-44690Y-57113D01*
X-44897Y-57382D01*
X-45000Y-57650D01*
Y-57918D01*
X-44897Y-58187D01*
X-44742Y-58417D01*
X-44535Y-58608D01*
G01X-45000Y-60750D02*
X-41900D01*
X-42520Y-60290D01*
G01X-45000D02*
Y-61210D01*
G01Y-63850D02*
X-41900D01*
X-42520Y-63390D01*
G01X-45000D02*
Y-64310D01*
G01X-33250Y-40500D02*
X-33557Y-40448D01*
X-33825Y-40242D01*
X-34055Y-39932D01*
X-34208Y-39570D01*
X-34285Y-39157D01*
Y-38743D01*
X-34208Y-38330D01*
X-34055Y-37968D01*
X-33825Y-37658D01*
X-33557Y-37452D01*
X-33250Y-37400D01*
X-32943Y-37452D01*
X-32675Y-37658D01*
X-32445Y-37968D01*
X-32292Y-38330D01*
X-32215Y-38743D01*
Y-39157D01*
X-32292Y-39570D01*
X-32445Y-39932D01*
X-32675Y-40242D01*
X-32943Y-40448D01*
X-33250Y-40500D01*
G01X-32943Y-39673D02*
X-32483Y-40500D01*
G01X-30878Y-37917D02*
X-30648Y-37607D01*
X-30380Y-37452D01*
X-30073Y-37400D01*
X-29690Y-37503D01*
X-29422Y-37762D01*
X-29345Y-38072D01*
X-29383Y-38382D01*
X-29537Y-38640D01*
X-30303Y-39157D01*
X-30648Y-39518D01*
X-30878Y-40035D01*
X-30955Y-40500D01*
X-29345D01*
G01X-7107Y-87158D02*
X-7337Y-87003D01*
X-7605Y-86900D01*
X-7912D01*
X-8257Y-87055D01*
X-8525Y-87313D01*
X-8717Y-87623D01*
X-8870Y-88140D01*
X-8908Y-88605D01*
X-8832Y-89070D01*
X-8717Y-89380D01*
X-8487Y-89690D01*
X-8218Y-89897D01*
X-7950Y-90000D01*
X-7682D01*
X-7413Y-89897D01*
X-7183Y-89742D01*
X-6992Y-89535D01*
G01X-4850Y-90000D02*
Y-86900D01*
X-5310Y-87520D01*
G01Y-90000D02*
X-4390D01*
G01X-1750Y-86900D02*
X-2057Y-87003D01*
X-2287Y-87262D01*
X-2440Y-87572D01*
X-2555Y-87985D01*
X-2593Y-88450D01*
X-2555Y-88915D01*
X-2440Y-89328D01*
X-2287Y-89638D01*
X-2057Y-89897D01*
X-1750Y-90000D01*
X-1443Y-89897D01*
X-1213Y-89638D01*
X-1060Y-89328D01*
X-945Y-88915D01*
X-907Y-88450D01*
X-945Y-87985D01*
X-1060Y-87572D01*
X-1213Y-87262D01*
X-1443Y-87003D01*
X-1750Y-86900D01*
G01X10000Y-12000D02*
X25000D01*
Y88000D01*
X-15000D01*
Y-12000D01*
X0D01*
G01X-12207Y-24158D02*
X-12437Y-24003D01*
X-12705Y-23900D01*
X-13012D01*
X-13357Y-24055D01*
X-13625Y-24313D01*
X-13817Y-24623D01*
X-13970Y-25140D01*
X-14008Y-25605D01*
X-13932Y-26070D01*
X-13817Y-26380D01*
X-13587Y-26690D01*
X-13318Y-26897D01*
X-13050Y-27000D01*
X-12782D01*
X-12513Y-26897D01*
X-12283Y-26742D01*
X-12092Y-26535D01*
G01X-9950Y-27000D02*
Y-23900D01*
X-10410Y-24520D01*
G01Y-27000D02*
X-9490D01*
G01X-28267Y15100D02*
Y18200D01*
X-27308D01*
X-27002Y18045D01*
X-26810Y17838D01*
X-26733Y17425D01*
X-26810Y17012D01*
X-27040Y16753D01*
X-27308Y16598D01*
X-28267D01*
G01X-27308D02*
X-26733Y15100D01*
G01X-24400D02*
Y18200D01*
X-24860Y17580D01*
G01Y15100D02*
X-23940D01*
G01X-22028Y17683D02*
X-21798Y17993D01*
X-21530Y18148D01*
X-21223Y18200D01*
X-20840Y18097D01*
X-20572Y17838D01*
X-20495Y17528D01*
X-20533Y17218D01*
X-20687Y16960D01*
X-21453Y16443D01*
X-21798Y16082D01*
X-22028Y15565D01*
X-22105Y15100D01*
X-20495D01*
G01X-30307Y27242D02*
X-30537Y27397D01*
X-30805Y27500D01*
X-31112D01*
X-31457Y27345D01*
X-31725Y27087D01*
X-31917Y26777D01*
X-32070Y26260D01*
X-32108Y25795D01*
X-32032Y25330D01*
X-31917Y25020D01*
X-31687Y24710D01*
X-31418Y24503D01*
X-31150Y24400D01*
X-30882D01*
X-30613Y24503D01*
X-30383Y24658D01*
X-30192Y24865D01*
G01X-28050Y24400D02*
Y27500D01*
X-28510Y26880D01*
G01Y24400D02*
X-27590D01*
G01X-25793Y25020D02*
X-25563Y24658D01*
X-25257Y24452D01*
X-24912Y24400D01*
X-24605Y24452D01*
X-24298Y24710D01*
X-24107Y25020D01*
X-24068Y25330D01*
X-24145Y25692D01*
X-24413Y25950D01*
X-24682Y26053D01*
X-25027D01*
G01X-24682D02*
X-24452Y26208D01*
X-24260Y26467D01*
X-24183Y26777D01*
X-24260Y27087D01*
X-24452Y27345D01*
X-24797Y27500D01*
X-25142Y27448D01*
X-25487Y27242D01*
G01X-24607Y68942D02*
X-24837Y69097D01*
X-25105Y69200D01*
X-25412D01*
X-25757Y69045D01*
X-26025Y68787D01*
X-26217Y68477D01*
X-26370Y67960D01*
X-26408Y67495D01*
X-26332Y67030D01*
X-26217Y66720D01*
X-25987Y66410D01*
X-25718Y66203D01*
X-25450Y66100D01*
X-25182D01*
X-24913Y66203D01*
X-24683Y66358D01*
X-24492Y66565D01*
G01X-22350Y66100D02*
Y69200D01*
X-22810Y68580D01*
G01Y66100D02*
X-21890D01*
G01X-19978Y67392D02*
X-19710Y67753D01*
X-19480Y67960D01*
X-19173Y68063D01*
X-18905Y67960D01*
X-18713Y67753D01*
X-18560Y67443D01*
X-18522Y67082D01*
X-18560Y66772D01*
X-18713Y66462D01*
X-18943Y66203D01*
X-19212Y66100D01*
X-19518Y66203D01*
X-19787Y66513D01*
X-19940Y66978D01*
X-19978Y67495D01*
X-19902Y68167D01*
X-19787Y68528D01*
X-19595Y68890D01*
X-19327Y69148D01*
X-19058Y69200D01*
X-18790Y69097D01*
X-18598Y68838D01*
G01X11393Y-87258D02*
X11163Y-87103D01*
X10895Y-87000D01*
X10588D01*
X10243Y-87155D01*
X9975Y-87413D01*
X9783Y-87723D01*
X9630Y-88240D01*
X9592Y-88705D01*
X9668Y-89170D01*
X9783Y-89480D01*
X10013Y-89790D01*
X10282Y-89997D01*
X10550Y-90100D01*
X10818D01*
X11087Y-89997D01*
X11317Y-89842D01*
X11508Y-89635D01*
G01X13650Y-90100D02*
X13918Y-90048D01*
X14225Y-89893D01*
X14417Y-89635D01*
X14493Y-89273D01*
X14417Y-88912D01*
X14187Y-88602D01*
X13842Y-88447D01*
X13458D01*
X13228Y-88343D01*
X13037Y-88085D01*
X12960Y-87723D01*
X13075Y-87362D01*
X13343Y-87103D01*
X13650Y-87000D01*
X13957Y-87103D01*
X14225Y-87362D01*
X14340Y-87723D01*
X14263Y-88085D01*
X14072Y-88343D01*
X13842Y-88447D01*
X13458D01*
X13113Y-88602D01*
X12883Y-88912D01*
X12807Y-89273D01*
X12883Y-89635D01*
X13075Y-89893D01*
X13382Y-90048D01*
X13650Y-90100D01*
G01X2400Y-45583D02*
X5500D01*
Y-46542D01*
X5345Y-46848D01*
X5138Y-47040D01*
X4725Y-47117D01*
X4312Y-47040D01*
X4053Y-46810D01*
X3898Y-46542D01*
Y-45583D01*
G01Y-46542D02*
X2400Y-47117D01*
G01X3020Y-48607D02*
X2658Y-48837D01*
X2452Y-49143D01*
X2400Y-49488D01*
X2452Y-49795D01*
X2710Y-50102D01*
X3020Y-50293D01*
X3330Y-50332D01*
X3692Y-50255D01*
X3950Y-49987D01*
X4053Y-49718D01*
Y-49373D01*
G01Y-49718D02*
X4208Y-49948D01*
X4467Y-50140D01*
X4777Y-50217D01*
X5087Y-50140D01*
X5345Y-49948D01*
X5500Y-49603D01*
X5448Y-49258D01*
X5242Y-48913D01*
G01X2907Y-14500D02*
Y-16722D01*
X3060Y-17187D01*
X3367Y-17497D01*
X3750Y-17600D01*
X4133Y-17497D01*
X4440Y-17187D01*
X4593Y-16722D01*
Y-14500D01*
G01X6850Y-17600D02*
Y-14500D01*
X6390Y-15120D01*
G01Y-17600D02*
X7310D01*
G01X2907Y-14500D02*
Y-16722D01*
X3060Y-17187D01*
X3367Y-17497D01*
X3750Y-17600D01*
X4133Y-17497D01*
X4440Y-17187D01*
X4593Y-16722D01*
Y-14500D01*
G01X6850Y-17600D02*
Y-14500D01*
X6390Y-15120D01*
G01Y-17600D02*
X7310D01*
G01X15000Y-12000D02*
Y88000D01*
G01X-5000Y-12000D02*
Y88000D01*
G01X10000Y-12000D02*
G03X5000Y-7000I-5000J0D01*
G01D02*
G03X0Y-12000I0J-5000D01*
G01X40800Y-82217D02*
X37700D01*
Y-81258D01*
X37855Y-80952D01*
X38062Y-80760D01*
X38475Y-80683D01*
X38888Y-80760D01*
X39147Y-80990D01*
X39302Y-81258D01*
Y-82217D01*
G01Y-81258D02*
X40800Y-80683D01*
G01Y-78350D02*
X40748Y-78082D01*
X40593Y-77775D01*
X40335Y-77583D01*
X39973Y-77507D01*
X39612Y-77583D01*
X39302Y-77813D01*
X39147Y-78158D01*
Y-78542D01*
X39043Y-78772D01*
X38785Y-78963D01*
X38423Y-79040D01*
X38062Y-78925D01*
X37803Y-78657D01*
X37700Y-78350D01*
X37803Y-78043D01*
X38062Y-77775D01*
X38423Y-77660D01*
X38785Y-77737D01*
X39043Y-77928D01*
X39147Y-78158D01*
Y-78542D01*
X39302Y-78887D01*
X39612Y-79117D01*
X39973Y-79193D01*
X40335Y-79117D01*
X40593Y-78925D01*
X40748Y-78618D01*
X40800Y-78350D01*
G01X21883Y-29800D02*
Y-26700D01*
X22842D01*
X23148Y-26855D01*
X23340Y-27062D01*
X23417Y-27475D01*
X23340Y-27888D01*
X23110Y-28147D01*
X22842Y-28302D01*
X21883D01*
G01X22842D02*
X23417Y-29800D01*
G01X24907Y-29335D02*
X25137Y-29593D01*
X25405Y-29748D01*
X25750Y-29800D01*
X26095Y-29697D01*
X26363Y-29490D01*
X26555Y-29128D01*
X26593Y-28715D01*
X26517Y-28302D01*
X26325Y-28043D01*
X26057Y-27837D01*
X25788Y-27785D01*
X25520Y-27837D01*
X25175Y-28043D01*
X25290Y-26700D01*
X26325D01*
G01X21291Y-35475D02*
Y-37697D01*
X21444Y-38162D01*
X21751Y-38472D01*
X22134Y-38575D01*
X22517Y-38472D01*
X22824Y-38162D01*
X22977Y-37697D01*
Y-35475D01*
G01X24391Y-37955D02*
X24621Y-38317D01*
X24927Y-38523D01*
X25272Y-38575D01*
X25579Y-38523D01*
X25886Y-38265D01*
X26077Y-37955D01*
X26116Y-37645D01*
X26039Y-37283D01*
X25771Y-37025D01*
X25502Y-36922D01*
X25157D01*
G01X25502D02*
X25732Y-36767D01*
X25924Y-36508D01*
X26001Y-36198D01*
X25924Y-35888D01*
X25732Y-35630D01*
X25387Y-35475D01*
X25042Y-35527D01*
X24697Y-35733D01*
G01X34433Y3000D02*
Y6100D01*
X35392D01*
X35698Y5945D01*
X35890Y5738D01*
X35967Y5325D01*
X35890Y4912D01*
X35660Y4653D01*
X35392Y4498D01*
X34433D01*
G01X35392D02*
X35967Y3000D01*
G01X38300D02*
Y6100D01*
X37840Y5480D01*
G01Y3000D02*
X38760D01*
G01X40557Y3465D02*
X40787Y3207D01*
X41055Y3052D01*
X41400Y3000D01*
X41745Y3103D01*
X42013Y3310D01*
X42205Y3672D01*
X42243Y4085D01*
X42167Y4498D01*
X41975Y4757D01*
X41707Y4963D01*
X41438Y5015D01*
X41170Y4963D01*
X40825Y4757D01*
X40940Y6100D01*
X41975D01*
G01X32400Y25950D02*
X32348Y25643D01*
X32142Y25375D01*
X31832Y25145D01*
X31470Y24992D01*
X31057Y24915D01*
X30643D01*
X30230Y24992D01*
X29868Y25145D01*
X29558Y25375D01*
X29352Y25643D01*
X29300Y25950D01*
X29352Y26257D01*
X29558Y26525D01*
X29868Y26755D01*
X30230Y26908D01*
X30643Y26985D01*
X31057D01*
X31470Y26908D01*
X31832Y26755D01*
X32142Y26525D01*
X32348Y26257D01*
X32400Y25950D01*
G01X31573Y26257D02*
X32400Y26717D01*
G01X31780Y28207D02*
X32142Y28437D01*
X32348Y28743D01*
X32400Y29088D01*
X32348Y29395D01*
X32090Y29702D01*
X31780Y29893D01*
X31470Y29932D01*
X31108Y29855D01*
X30850Y29587D01*
X30747Y29318D01*
Y28973D01*
G01Y29318D02*
X30592Y29548D01*
X30333Y29740D01*
X30023Y29817D01*
X29713Y29740D01*
X29455Y29548D01*
X29300Y29203D01*
X29352Y28858D01*
X29558Y28513D01*
G01X32400Y25950D02*
X32348Y25643D01*
X32142Y25375D01*
X31832Y25145D01*
X31470Y24992D01*
X31057Y24915D01*
X30643D01*
X30230Y24992D01*
X29868Y25145D01*
X29558Y25375D01*
X29352Y25643D01*
X29300Y25950D01*
X29352Y26257D01*
X29558Y26525D01*
X29868Y26755D01*
X30230Y26908D01*
X30643Y26985D01*
X31057D01*
X31470Y26908D01*
X31832Y26755D01*
X32142Y26525D01*
X32348Y26257D01*
X32400Y25950D01*
G01X31573Y26257D02*
X32400Y26717D01*
G01X31780Y28207D02*
X32142Y28437D01*
X32348Y28743D01*
X32400Y29088D01*
X32348Y29395D01*
X32090Y29702D01*
X31780Y29893D01*
X31470Y29932D01*
X31108Y29855D01*
X30850Y29587D01*
X30747Y29318D01*
Y28973D01*
G01Y29318D02*
X30592Y29548D01*
X30333Y29740D01*
X30023Y29817D01*
X29713Y29740D01*
X29455Y29548D01*
X29300Y29203D01*
X29352Y28858D01*
X29558Y28513D01*
G01X38333Y44600D02*
Y47700D01*
X39292D01*
X39598Y47545D01*
X39790Y47338D01*
X39867Y46925D01*
X39790Y46512D01*
X39560Y46253D01*
X39292Y46098D01*
X38333D01*
G01X39292D02*
X39867Y44600D01*
G01X42200D02*
Y47700D01*
X41740Y47080D01*
G01Y44600D02*
X42660D01*
G01X45300D02*
Y47700D01*
X44840Y47080D01*
G01Y44600D02*
X45760D01*
G01X61500Y-85893D02*
X58400D01*
Y-85127D01*
X58555Y-84820D01*
X58762Y-84590D01*
X59072Y-84398D01*
X59433Y-84245D01*
X59950Y-84207D01*
X60467Y-84245D01*
X60828Y-84398D01*
X61138Y-84590D01*
X61345Y-84820D01*
X61500Y-85127D01*
Y-85893D01*
G01X58917Y-82678D02*
X58607Y-82448D01*
X58452Y-82180D01*
X58400Y-81873D01*
X58503Y-81490D01*
X58762Y-81222D01*
X59072Y-81145D01*
X59382Y-81183D01*
X59640Y-81337D01*
X60157Y-82103D01*
X60518Y-82448D01*
X61035Y-82678D01*
X61500Y-82755D01*
Y-81145D01*
G01X49220Y-17483D02*
X48910Y-17675D01*
X48703Y-17905D01*
X48600Y-18173D01*
X48703Y-18480D01*
X48910Y-18710D01*
X49220Y-18940D01*
X49633Y-19017D01*
X51700D01*
G01X49892Y-20622D02*
X50253Y-20890D01*
X50460Y-21120D01*
X50563Y-21427D01*
X50460Y-21695D01*
X50253Y-21887D01*
X49943Y-22040D01*
X49582Y-22078D01*
X49272Y-22040D01*
X48962Y-21887D01*
X48703Y-21657D01*
X48600Y-21388D01*
X48703Y-21082D01*
X49013Y-20813D01*
X49478Y-20660D01*
X49995Y-20622D01*
X50667Y-20698D01*
X51028Y-20813D01*
X51390Y-21005D01*
X51648Y-21273D01*
X51700Y-21542D01*
X51597Y-21810D01*
X51338Y-22002D01*
G01X49220Y-17483D02*
X48910Y-17675D01*
X48703Y-17905D01*
X48600Y-18173D01*
X48703Y-18480D01*
X48910Y-18710D01*
X49220Y-18940D01*
X49633Y-19017D01*
X51700D01*
G01X49892Y-20622D02*
X50253Y-20890D01*
X50460Y-21120D01*
X50563Y-21427D01*
X50460Y-21695D01*
X50253Y-21887D01*
X49943Y-22040D01*
X49582Y-22078D01*
X49272Y-22040D01*
X48962Y-21887D01*
X48703Y-21657D01*
X48600Y-21388D01*
X48703Y-21082D01*
X49013Y-20813D01*
X49478Y-20660D01*
X49995Y-20622D01*
X50667Y-20698D01*
X51028Y-20813D01*
X51390Y-21005D01*
X51648Y-21273D01*
X51700Y-21542D01*
X51597Y-21810D01*
X51338Y-22002D01*
G01X46358Y-3407D02*
X46203Y-3637D01*
X46100Y-3905D01*
Y-4212D01*
X46255Y-4557D01*
X46513Y-4825D01*
X46823Y-5017D01*
X47340Y-5170D01*
X47805Y-5208D01*
X48270Y-5132D01*
X48580Y-5017D01*
X48890Y-4787D01*
X49097Y-4518D01*
X49200Y-4250D01*
Y-3982D01*
X49097Y-3713D01*
X48942Y-3483D01*
X48735Y-3292D01*
G01X49200Y-1150D02*
X46100D01*
X46720Y-1610D01*
G01X49200D02*
Y-690D01*
G01X46617Y1222D02*
X46307Y1452D01*
X46152Y1720D01*
X46100Y2027D01*
X46203Y2410D01*
X46462Y2678D01*
X46772Y2755D01*
X47082Y2717D01*
X47340Y2563D01*
X47857Y1797D01*
X48218Y1452D01*
X48735Y1222D01*
X49200Y1145D01*
Y2755D01*
G01X72528Y58669D02*
Y32094D01*
X59929D01*
Y58669D01*
X72528D01*
G01X63783Y60620D02*
X63975Y60310D01*
X64205Y60103D01*
X64473Y60000D01*
X64780Y60103D01*
X65010Y60310D01*
X65240Y60620D01*
X65317Y61033D01*
Y63100D01*
G01X68110Y60000D02*
Y63100D01*
X66692Y60878D01*
X68608D01*
G01X72224Y-28982D02*
X75324D01*
Y-29941D01*
X75169Y-30247D01*
X74962Y-30439D01*
X74549Y-30516D01*
X74136Y-30439D01*
X73877Y-30209D01*
X73722Y-29941D01*
Y-28982D01*
G01Y-29941D02*
X72224Y-30516D01*
G01X73516Y-32121D02*
X73877Y-32389D01*
X74084Y-32619D01*
X74187Y-32926D01*
X74084Y-33194D01*
X73877Y-33386D01*
X73567Y-33539D01*
X73206Y-33577D01*
X72896Y-33539D01*
X72586Y-33386D01*
X72327Y-33156D01*
X72224Y-32887D01*
X72327Y-32581D01*
X72637Y-32312D01*
X73102Y-32159D01*
X73619Y-32121D01*
X74291Y-32197D01*
X74652Y-32312D01*
X75014Y-32504D01*
X75272Y-32772D01*
X75324Y-33041D01*
X75221Y-33309D01*
X74962Y-33501D01*
G01X80383Y21920D02*
X80575Y21610D01*
X80805Y21403D01*
X81073Y21300D01*
X81380Y21403D01*
X81610Y21610D01*
X81840Y21920D01*
X81917Y22333D01*
Y24400D01*
G01X83407Y21765D02*
X83637Y21507D01*
X83905Y21352D01*
X84250Y21300D01*
X84595Y21403D01*
X84863Y21610D01*
X85055Y21972D01*
X85093Y22385D01*
X85017Y22798D01*
X84825Y23057D01*
X84557Y23263D01*
X84288Y23315D01*
X84020Y23263D01*
X83675Y23057D01*
X83790Y24400D01*
X84825D01*
G01X68000Y30914D02*
X69181Y28945D01*
G01X66819Y28944D02*
X68000Y30913D01*
G01X69181Y28945D02*
X66819D01*
G01X74283Y89620D02*
X74475Y89310D01*
X74705Y89103D01*
X74973Y89000D01*
X75280Y89103D01*
X75510Y89310D01*
X75740Y89620D01*
X75817Y90033D01*
Y92100D01*
G01X77307Y89620D02*
X77537Y89258D01*
X77843Y89052D01*
X78188Y89000D01*
X78495Y89052D01*
X78802Y89310D01*
X78993Y89620D01*
X79032Y89930D01*
X78955Y90292D01*
X78687Y90550D01*
X78418Y90653D01*
X78073D01*
G01X78418D02*
X78648Y90808D01*
X78840Y91067D01*
X78917Y91377D01*
X78840Y91687D01*
X78648Y91945D01*
X78303Y92100D01*
X77958Y92048D01*
X77613Y91842D01*
G01X74283Y89620D02*
X74475Y89310D01*
X74705Y89103D01*
X74973Y89000D01*
X75280Y89103D01*
X75510Y89310D01*
X75740Y89620D01*
X75817Y90033D01*
Y92100D01*
G01X77307Y89620D02*
X77537Y89258D01*
X77843Y89052D01*
X78188Y89000D01*
X78495Y89052D01*
X78802Y89310D01*
X78993Y89620D01*
X79032Y89930D01*
X78955Y90292D01*
X78687Y90550D01*
X78418Y90653D01*
X78073D01*
G01X78418D02*
X78648Y90808D01*
X78840Y91067D01*
X78917Y91377D01*
X78840Y91687D01*
X78648Y91945D01*
X78303Y92100D01*
X77958Y92048D01*
X77613Y91842D01*
G54D11*
G01X-80940Y84791D02*
G03Y51839I12940J-16476D01*
G01X-91950Y90500D02*
Y85500D01*
G01X-94450Y88000D02*
X-89450D01*
G01X-73417Y48077D02*
G03X-62583I5417J20238D01*
G01X-72388Y88800D02*
G03X-73417Y88552I4392J-20484D01*
G01X-62583Y88553D02*
G03X-63612Y88800I-5403J-20241D01*
G01X-55060Y51839D02*
G03X-47050Y68315I-12940J16476D01*
G01D02*
G03X-55060Y84791I-20950J0D01*
G01X35800Y20950D02*
X39590D01*
G01X35800Y27050D02*
Y20950D01*
G01X43192Y27050D02*
X40808D01*
G01X44410Y20950D02*
X48200D01*
G01D02*
Y27050D01*
G01X45902Y33300D02*
G03I-300J0D01*
G54D12*
G01X-87165Y-80000D02*
G03I-394J0D01*
G01X-85000Y-85000D02*
Y-65000D01*
X-75000D01*
Y-85000D01*
X-85000D01*
G01X-87165Y-47500D02*
G03I-394J0D01*
G01X-85000Y-52500D02*
Y-32500D01*
X-75000D01*
Y-52500D01*
X-85000D01*
G01X-87165Y-15000D02*
G03I-394J0D01*
G01X-85000Y-20000D02*
Y0D01*
X-75000D01*
Y-20000D01*
X-85000D01*
G01X-87165Y18000D02*
G03I-394J0D01*
G01X-85000Y13000D02*
Y33000D01*
X-75000D01*
Y13000D01*
X-85000D01*
G01X57394Y-10441D02*
G03I-394J0D01*
G01X52000Y-13000D02*
X82000D01*
Y-23000D01*
X52000D01*
Y-13000D01*
G01X82000Y78000D02*
X52000D01*
Y88000D01*
X82000D01*
Y78000D01*
G01X89953Y14000D02*
G03I-394J0D01*
G01X87000Y19000D02*
Y-1000D01*
X77000D01*
Y19000D01*
X87000D01*
G01X77000Y75047D02*
G03X77394Y75441I0J394D01*
G01X76606D02*
G03X77000Y75047I394J0D01*
G01Y75835D02*
G03X76606Y75441I0J-394D01*
G01X77394D02*
G03X77000Y75835I-394J0D01*
M02*
