G04 ================== begin FILE IDENTIFICATION RECORD ==================*
G04 Layout Name:  WCSA_SystemSchem_4-Layer.brd*
G04 Film Name:    GND*
G04 File Format:  Gerber RS274X*
G04 File Origin:  Cadence Allegro 17.4-S013*
G04 Origin Date:  Thu May  5 23:29:30 2022*
G04 *
G04 Layer:  ETCH/GND*
G04 Layer:  PIN/GND*
G04 Layer:  VIA CLASS/GND*
G04 *
G04 Offset:    (0.00 0.00)*
G04 Mirror:    No*
G04 Mode:      Positive*
G04 Rotation:  0*
G04 FullContactRelief:  No*
G04 UndefLineWidth:     5.00*
G04 ================== end FILE IDENTIFICATION RECORD ====================*
%FSLAX25Y25*MOIN*%
%IR0*IPPOS*OFA0.00000B0.00000*MIA0B0*SFA1.00000B1.00000*%
%ADD13C,.024*%
%ADD12C,.063*%
%ADD17C,.03346*%
%ADD11C,.05394*%
%ADD16R,.03346X.03346*%
%ADD14C,.05937*%
%ADD10R,.05394X.05394*%
%ADD15R,.05937X.05937*%
%ADD18C,.01*%
%ADD19C,.025*%
%ADD20C,.03404*%
%ADD23C,.07304*%
%ADD22C,.09304*%
%ADD25C,.0694*%
%ADD24C,.0894*%
%ADD21C,.08398*%
G75*
%LPD*%
G75*
G36*
G01X-63012Y91000D02*
X-60000D01*
X-46000Y77000D01*
X-14187D01*
G02X-13552Y75714I0J-800D01*
G03X-14470Y73000I3553J-2714D01*
G03X-5530I4470J0D01*
G03X-6448Y75714I-4471J0D01*
G02X-5813Y77000I635J486D01*
G01X15813D01*
G02X16448Y75714I0J-800D01*
G03X15530Y73000I3553J-2714D01*
G03X24470I4470J0D01*
G03X23552Y75714I-4471J0D01*
G02X24187Y77000I635J486D01*
G01X27000D01*
X40000Y90000D01*
X90000D01*
Y-90000D01*
X69494D01*
G02X68697Y-89136I0J800D01*
G03X68702Y-89000I-1697J130D01*
G03X65298I-1702J0D01*
G03X65303Y-89136I1702J-6D01*
G02X64506Y-90000I-797J-64D01*
G01X-22506D01*
G02X-23303Y-89136I0J800D01*
G03X-23298Y-89000I-1697J130D01*
G03X-26702I-1702J0D01*
G03X-26697Y-89136I1702J-6D01*
G02X-27494Y-90000I-797J-64D01*
G01X-90000D01*
Y91000D01*
X-72988D01*
G02X-72256Y89877I0J-800D01*
G03X-72652Y88000I4256J-1878D01*
G03X-63348I4652J0D01*
G03X-63744Y89877I-4652J-1D01*
G02X-63012Y91000I732J323D01*
G37*
%LPC*%
G75*
G36*
G01X15530Y-9968D02*
Y-4032D01*
G02X17032Y-2530I1501J1D01*
G01X22968D01*
G02X24470Y-4032I0J-1501D01*
G01Y-9968D01*
G02X22968Y-11470I-1502J-1D01*
G01X17032D01*
G02X15530Y-9968I-1J1502D01*
G37*
G36*
G01X52802Y-20697D02*
Y-15303D01*
G02X54303Y-13802I1501J0D01*
G01X59697D01*
G02X61198Y-15303I0J-1501D01*
G01Y-20697D01*
G02X59697Y-22198I-1501J0D01*
G01X54303D01*
G02X52802Y-20697I0J1501D01*
G37*
G36*
G01X-83198Y-82697D02*
Y-77303D01*
G02X-82697Y-76802I501J0D01*
G01X-77303D01*
G02X-76802Y-77303I0J-501D01*
G01Y-82697D01*
G02X-77303Y-83198I-501J0D01*
G01X-82697D01*
G02X-83198Y-82697I0J501D01*
G37*
G36*
G01X-84198Y15303D02*
Y20697D01*
G02X-82697Y22198I1501J0D01*
G01X-77303D01*
G02X-75802Y20697I0J-1501D01*
G01Y15303D01*
G02X-77303Y13802I-1501J0D01*
G01X-82697D01*
G02X-84198Y15303I0J1501D01*
G37*
G36*
G01X77802Y11303D02*
Y16697D01*
G02X79303Y18198I1501J0D01*
G01X84697D01*
G02X86198Y16697I0J-1501D01*
G01Y11303D01*
G02X84697Y9802I-1501J0D01*
G01X79303D01*
G02X77802Y11303I0J1501D01*
G37*
G36*
G01X-83198Y-50197D02*
Y-44803D01*
G02X-82697Y-44302I501J0D01*
G01X-77303D01*
G02X-76802Y-44803I0J-501D01*
G01Y-50197D01*
G02X-77303Y-50698I-501J0D01*
G01X-82697D01*
G02X-83198Y-50197I0J501D01*
G37*
G36*
G01Y-17697D02*
Y-12303D01*
G02X-82697Y-11802I501J0D01*
G01X-77303D01*
G02X-76802Y-12303I0J-501D01*
G01Y-17697D01*
G02X-77303Y-18198I-501J0D01*
G01X-82697D01*
G02X-83198Y-17697I0J501D01*
G37*
G36*
G01X73802Y80303D02*
Y85697D01*
G02X74303Y86198I501J0D01*
G01X79697D01*
G02X80198Y85697I0J-501D01*
G01Y80303D01*
G02X79697Y79802I-501J0D01*
G01X74303D01*
G02X73802Y80303I0J501D01*
G37*
G36*
G01X65697Y50028D02*
G03Y50579I-291J276D01*
G02X64825Y52764I2303J2186D01*
G02X71175I3175J0D01*
G02X70303Y50579I-3175J1D01*
G03Y50028I291J-276D01*
G02X71175Y47843I-2303J-2186D01*
G02X70303Y45657I-3176J0D01*
G03Y45107I290J-275D01*
G02X71175Y42921I-2304J-2186D01*
G02X70105Y40544I-3175J0D01*
G03X70061Y39991I265J-299D01*
G02X70174Y39673I-388J-317D01*
G01Y36327D01*
G02X69673Y35826I-501J0D01*
G01X66327D01*
G02X65826Y36327I0J501D01*
G01Y39673D01*
G02X65939Y39991I501J1D01*
G03X65895Y40544I-309J254D01*
G02X64825Y42921I2105J2377D01*
G02X65697Y45107I3176J0D01*
G03Y45657I-290J275D01*
G02X64825Y47843I2304J2186D01*
G02X65697Y50028I3175J-1D01*
G37*
G54D20*
X47800Y36200D03*
X-41700Y-24700D03*
X-54086Y-10000D03*
X67000Y-61000D03*
X85000Y59000D03*
X47827Y64173D03*
X20000Y-19000D03*
X-9000Y-34000D03*
X67000Y-6000D03*
X36173Y68300D03*
X85000Y-75000D03*
X8307Y-37000D03*
X49000Y-64000D03*
X52500Y-52500D03*
X17000Y-40000D03*
X4000Y-80807D03*
X52000Y-30000D03*
X67500Y-54000D03*
X-62500Y2500D03*
X-33500Y-80807D03*
X-34807Y-69193D03*
X-55000Y-80827D03*
X-49500Y-47600D03*
X-17000Y-53000D03*
X-15000Y-75000D03*
X-62500Y-27500D03*
X-52000Y-60500D03*
X-22000Y57500D03*
G54D23*
X-77842Y48630D03*
G54D22*
X-58158D03*
G54D25*
X-10000Y-7000D03*
G54D24*
Y63000D03*
Y53000D03*
Y43000D03*
Y33000D03*
Y23000D03*
Y13000D03*
Y3000D03*
X20000D03*
Y13000D03*
Y23000D03*
Y33000D03*
Y43000D03*
Y53000D03*
Y63000D03*
G54D21*
X67000Y83000D03*
X57000D03*
X-80000Y-5000D03*
Y-37500D03*
X82000Y4000D03*
X-80000Y28000D03*
Y-70000D03*
X67000Y-18000D03*
X77000D03*
%LPD*%
G75*
G54D10*
X-80000Y-80000D03*
Y-47500D03*
Y-15000D03*
Y18000D03*
X57000Y-18000D03*
X82000Y14000D03*
X77000Y83000D03*
G54D11*
X-80000Y-70000D03*
Y-37500D03*
Y-5000D03*
Y28000D03*
X67000Y-18000D03*
Y83000D03*
X57000D03*
X77000Y-18000D03*
X82000Y4000D03*
G54D12*
X-77842Y48630D03*
X-58158D03*
X-68000Y88000D03*
G54D13*
X-62500Y-27500D03*
Y2500D03*
X-58000Y9000D03*
X-55000Y-80827D03*
X-33500Y-80807D03*
X-34807Y-69193D03*
X-52000Y-60500D03*
X-49500Y-47600D03*
X-42000Y-40000D03*
X-41700Y-24700D03*
X-32400Y-19173D03*
X-54086Y-10000D03*
X-37100Y39400D03*
X-34950Y69000D03*
X-41000Y82200D03*
X-25000Y-89000D03*
X-15000Y-75000D03*
X-9000Y-34000D03*
X-17000Y-53000D03*
X-26000Y-48900D03*
X-6927Y-16928D03*
X-22000Y57500D03*
X4000Y-80807D03*
X16400Y-47500D03*
X17000Y-40000D03*
X8307Y-37000D03*
X6000Y92000D03*
X42000Y-87000D03*
X22000Y-69193D03*
X20000Y-19000D03*
X38400Y36000D03*
X29600Y50000D03*
X36173Y68300D03*
X67000Y-89000D03*
Y-61000D03*
X67500Y-54000D03*
X49000Y-64000D03*
X52500Y-52500D03*
X52000Y-30000D03*
X67000Y-6000D03*
X47000Y-11000D03*
X47800Y36200D03*
X47827Y64173D03*
X85000Y-75000D03*
Y-48000D03*
Y31000D03*
Y59000D03*
X77000Y73000D03*
G54D14*
X-10000Y-7000D03*
Y3000D03*
Y13000D03*
Y23000D03*
Y33000D03*
Y43000D03*
Y53000D03*
Y63000D03*
Y73000D03*
Y83000D03*
X20000Y13000D03*
Y3000D03*
Y43000D03*
Y33000D03*
Y23000D03*
Y63000D03*
Y53000D03*
Y73000D03*
Y83000D03*
G54D15*
Y-7000D03*
G54D16*
X68000Y38000D03*
G54D17*
Y42921D03*
Y52764D03*
Y47843D03*
G54D18*
G01X-83599Y-80000D02*
X-80000D01*
G01X-83599Y-47500D02*
X-80000D01*
G01X-83599Y-15000D02*
X-80000D01*
G01X-81894Y48630D02*
X-77842D01*
G01X-80000Y-80000D02*
X-76401D01*
G01X-80000D02*
Y-76401D01*
G01Y-83599D02*
Y-80000D01*
G01Y-47500D02*
X-76401D01*
G01X-80000D02*
Y-43901D01*
G01Y-51099D02*
Y-47500D01*
G01Y-15000D02*
X-76401D01*
G01X-80000D02*
Y-11401D01*
G01Y-18599D02*
Y-15000D01*
G01X-77842Y48630D02*
X-73790D01*
G01X-77842D02*
Y52682D01*
G01Y44578D02*
Y48630D01*
G01X-10000Y-7000D02*
X-6129D01*
G01X-13871D02*
X-10000D01*
G01D02*
Y-3129D01*
G01Y-10871D02*
Y-7000D01*
G01X65425Y38000D02*
X68000D01*
G01D02*
X70575D01*
G01X68000Y35425D02*
Y38000D01*
G01X77000Y83000D02*
X80599D01*
G01X73401D02*
X77000D01*
G01D02*
Y86599D01*
G01Y79401D02*
Y83000D01*
G54D19*
G01X-41000Y82200D02*
Y86900D01*
X-35900Y92000D01*
X-6000D01*
X3000Y83000D01*
X20000D01*
M02*
